<?xml version="1.0" encoding="UTF-8" standalone="no"?>
<!-- Created with Inkscape (http://www.inkscape.org/) -->

<svg
   width="80mm"
   height="15mm"
   viewBox="0 0 80 15"
   version="1.1"
   id="svg1"
   inkscape:version="1.4.2 (f4327f4, 2025-05-13)"
   sodipodi:docname="LOGO3.svg"
   xmlns:inkscape="http://www.inkscape.org/namespaces/inkscape"
   xmlns:sodipodi="http://sodipodi.sourceforge.net/DTD/sodipodi-0.dtd"
   xmlns="http://www.w3.org/2000/svg"
   xmlns:svg="http://www.w3.org/2000/svg">
  <sodipodi:namedview
     id="namedview1"
     pagecolor="#ffffff"
     bordercolor="#000000"
     borderopacity="0.25"
     inkscape:showpageshadow="2"
     inkscape:pageopacity="0.0"
     inkscape:pagecheckerboard="0"
     inkscape:deskcolor="#d1d1d1"
     inkscape:document-units="mm"
     inkscape:zoom="1.7923962"
     inkscape:cx="180.76361"
     inkscape:cy="-0.83686855"
     inkscape:window-width="1366"
     inkscape:window-height="705"
     inkscape:window-x="-8"
     inkscape:window-y="-8"
     inkscape:window-maximized="1"
     inkscape:current-layer="layer1" />
  <defs
     id="defs1">
    <clipPath
       id="clip_75">
      <path
         transform="matrix(1,0,0,-1,0,768)"
         d="m 641.376,321.772 c -0.629,-0.009 -1.239,-0.018 -1.579,-0.011 l -4.546,-0.034 c -15.061,-0.027 -30.42,-0.531 -45.458,-0.428 -2.443,0.058 -3.705,-3.007 -2.028,-4.733 l 0.389,-0.415 c 0.979,-1.021 6.687,-7.168 7.746,-8.321 5.598,-6.108 11.38,-12.246 17.198,-18.154 1.341,-1.632 3.758,-1.892 5.315,-0.421 l 1.634,1.616 c 6.624,6.585 17.546,17.546 24.127,24.091 0.838,0.87 2.004,1.737 2.168,3.022 0.339,1.877 -1.197,3.797 -3.115,3.795 -0.132,0.004 -0.304,0.006 -0.502,0.006 -0.388,0 -0.874,-0.007 -1.349,-0.013 m -6.125,-1.082 c 1.464,-0.009 5.418,-0.044 6.82,-0.052 0.151,-0.005 0.303,-0.003 0.454,-0.002 0.526,0.003 1.042,0.007 1.516,-0.228 0.792,-0.408 1.248,-1.345 1.094,-2.219 -0.088,-0.626 -0.597,-1.117 -1.037,-1.528 l -0.818,-0.79 c -6.668,-6.484 -17.812,-17.163 -24.521,-23.689 l -1.615,-1.564 c -0.663,-0.626 -1.789,-0.599 -2.421,0.057 l -0.1,0.101 -0.2,0.201 c -5.796,5.927 -11.835,11.818 -17.835,17.529 l -6.553,6.306 c -0.47,0.509 -2.02,1.867 -2.367,2.403 -1.121,1.578 0.206,3.95 2.125,3.903 15.044,0.106 30.392,-0.404 45.458,-0.428"
         id="path17" />
    </clipPath>
    <clipPath
       id="clip_74">
      <path
         transform="matrix(1,0,0,-1,0,768)"
         d="m 590.927,327.828 c -0.172,-1.607 1.115,-3.263 1.843,-4.57 4.457,-7.486 9.499,-15.667 14.212,-22.937 l 4.829,-7.592 1.196,-1.907 c 1.343,-2.203 4.563,-2.12 5.782,0.137 6.719,11.716 13.96,23.097 20.801,34.746 1.41,2.453 -0.204,6.176 -3.196,6.263 -0.146,0.012 -0.265,0.011 -0.384,0.011 -0.065,0 -0.129,0 -0.197,0.002 l -1.124,0.008 c -11.195,0.075 -27.098,0.212 -38.222,0.32 l -1.124,0.011 c -0.072,0.004 -0.144,0.006 -0.215,0.006 -2.349,0 -4.207,-2.219 -4.201,-4.498 m 5.54,2.737 c 11.147,0.121 27.003,0.232 38.222,0.319 0.342,0.005 1.355,0.011 1.666,0.005 2.24,-0.044 3.397,-2.898 2.374,-4.738 -6.732,-11.668 -13.197,-23.527 -20.096,-35.101 -0.731,-1.271 -2.344,-1.959 -3.729,-1.409 -1.424,0.487 -1.919,2.066 -2.709,3.318 l -4.384,7.856 c -4.555,8.294 -9.681,17.202 -14.588,25.332 -1.143,1.679 -0.051,4.504 2.12,4.407 z"
         id="path16" />
    </clipPath>
    <clipPath
       id="clip_76">
      <path
         transform="matrix(1,0,0,-1,0,768)"
         d="m 672.68,315.336 c -0.647,-0.334 -1.242,-0.742 -1.784,-1.224 -0.543,-0.482 -1.009,-1.03 -1.399,-1.645 -0.389,-0.614 -0.693,-1.289 -0.91,-2.025 -0.216,-0.735 -0.324,-1.529 -0.324,-2.38 0,-0.683 0.081,-1.305 0.246,-1.869 0.165,-0.561 0.39,-1.076 0.675,-1.542 0.285,-0.465 0.625,-0.89 1.019,-1.271 0.393,-0.381 0.819,-0.737 1.277,-1.066 0.458,-0.331 0.938,-0.639 1.44,-0.929 0.502,-0.289 1.006,-0.571 1.513,-0.843 0.482,-0.265 0.956,-0.529 1.422,-0.79 0.466,-0.261 0.91,-0.534 1.332,-0.82 0.421,-0.285 0.812,-0.588 1.169,-0.91 1.233,-1.108 1.913,-2.721 1.743,-4.385 -0.365,-3.547 -4.048,-5.182 -7.252,-4.552 -0.927,0.181 -1.906,0.535 -2.662,1.117 -0.678,0.521 -1.677,1.668 -1.801,2.553 0.203,-1.45 0.761,-2.883 1.783,-3.953 0.682,-0.714 1.562,-1.195 2.537,-1.36 2.09,-0.352 4.398,0.173 6.187,1.284 2.469,1.535 4.015,4.243 4.015,7.176 0,0.666 -0.082,1.274 -0.248,1.819 -0.164,0.547 -0.39,1.047 -0.675,1.501 -0.285,0.454 -0.622,0.868 -1.012,1.241 -0.39,0.374 -0.813,0.719 -1.271,1.036 -0.458,0.318 -0.939,0.617 -1.441,0.899 -0.501,0.28 -1.006,0.554 -1.512,0.819 -0.491,0.265 -0.977,0.53 -1.458,0.796 -0.483,0.264 -0.941,0.543 -1.374,0.837 -0.434,0.293 -0.837,0.605 -1.206,0.934 -0.369,0.329 -0.689,0.695 -0.958,1.097 -0.269,0.402 -0.48,0.842 -0.633,1.32 -0.152,0.477 -0.228,1.01 -0.228,1.596 0,0.724 0.132,1.387 0.397,1.989 0.112,0.255 0.246,0.491 0.394,0.717 1.099,1.673 3.038,2.597 5.001,2.723 1.012,0.065 2.014,-0.1 2.945,-0.503 0.976,-0.422 1.717,-1.141 2.615,-1.665 -0.085,1.287 -1.516,2.426 -2.609,2.876 -0.813,0.335 -1.702,0.484 -2.604,0.484 -1.516,0 -3.067,-0.42 -4.349,-1.082"
         id="path18" />
    </clipPath>
    <clipPath
       id="clip_77">
      <path
         transform="matrix(1,0,0,-1,0,768)"
         d="m 691.087,320.681 c -0.209,-0.041 -0.396,-0.103 -0.561,-0.187 -0.165,-0.084 -0.299,-0.198 -0.403,-0.338 -0.105,-0.141 -0.161,-0.307 -0.17,-0.499 -0.063,-1.254 -0.132,-2.568 -0.204,-3.942 -0.073,-1.374 -0.147,-2.778 -0.223,-4.212 -0.077,-1.434 -0.155,-2.887 -0.235,-4.357 -0.08,-1.47 -0.158,-2.929 -0.235,-4.375 -0.076,-1.447 -0.153,-2.867 -0.229,-4.261 -0.077,-1.393 -0.149,-2.733 -0.217,-4.018 -0.069,-1.286 -0.133,-2.501 -0.193,-3.646 -0.06,-1.146 -0.114,-2.192 -0.163,-3.139 l 0.194,-0.013 2.567,0.313 c 0.063,1.189 0.22,2.379 0.469,3.568 0.249,1.189 0.563,2.328 0.94,3.417 0.378,1.088 0.804,2.101 1.278,3.037 0.474,0.936 0.967,1.747 1.476,2.434 0.51,0.687 1.025,1.228 1.543,1.621 0.518,0.394 1.006,0.59 1.465,0.59 0.586,0 1.052,-0.223 1.397,-0.668 0.345,-0.447 0.518,-1.115 0.518,-2.006 0,-0.37 -0.025,-0.858 -0.078,-1.466 -0.052,-0.606 -0.108,-1.275 -0.169,-2.006 -0.06,-0.731 -0.116,-1.495 -0.168,-2.29 -0.052,-0.795 -0.079,-1.566 -0.079,-2.314 0,-0.618 0.019,-1.197 0.055,-1.735 0.036,-0.538 0.116,-1.009 0.241,-1.41 0.124,-0.402 0.311,-0.72 0.56,-0.953 0.249,-0.233 0.59,-0.349 1.025,-0.349 0.369,0 0.796,0.062 1.277,0.187 0.482,0.124 0.967,0.287 1.453,0.488 0.486,0.201 0.949,0.422 1.392,0.663 0.441,0.241 0.807,0.477 1.096,0.71 -0.884,0.4 -1.971,-0.035 -2.892,-0.035 -0.289,0 -0.535,0.042 -0.736,0.126 -0.2,0.084 -0.361,0.242 -0.482,0.47 -0.12,0.229 -0.206,0.54 -0.259,0.934 -0.052,0.394 -0.078,0.904 -0.078,1.531 0,0.354 0.014,0.775 0.043,1.266 0.027,0.489 0.062,1.008 0.101,1.554 0.041,0.547 0.087,1.101 0.14,1.663 0.051,0.563 0.098,1.099 0.137,1.609 0.041,0.511 0.075,0.972 0.103,1.386 0.028,0.414 0.042,0.742 0.042,0.982 0,0.796 -0.096,1.479 -0.289,2.05 -0.193,0.57 -0.452,1.036 -0.777,1.397 -0.325,0.362 -0.698,0.628 -1.115,0.801 -0.418,0.173 -0.852,0.259 -1.302,0.259 -0.65,0 -1.334,-0.197 -2.049,-0.59 -0.715,-0.393 -1.432,-1.03 -2.151,-1.91 -0.719,-0.88 -1.426,-2.027 -2.121,-3.44 -0.695,-1.415 -1.352,-3.138 -1.97,-5.171 l -0.073,0.012 c 0.081,1.133 0.155,2.191 0.223,3.176 0.068,0.984 0.135,1.932 0.199,2.844 0.065,0.912 0.129,1.81 0.193,2.694 0.064,0.883 0.134,1.79 0.211,2.718 0.076,0.928 0.16,1.898 0.253,2.91 0.092,1.012 0.197,2.104 0.313,3.273 0.116,1.168 0.247,2.438 0.391,3.807 0.145,1.37 0.31,2.875 0.495,4.514 -0.53,0.256 -1.036,0.386 -1.519,0.386 -0.225,0 -0.442,-0.021 -0.65,-0.06"
         id="path19" />
    </clipPath>
    <clipPath
       id="clip_78">
      <path
         transform="matrix(1,0,0,-1,0,768)"
         d="m 715.918,305.049 c -0.783,-0.281 -1.503,-0.669 -2.158,-1.163 -0.654,-0.494 -1.239,-1.077 -1.753,-1.748 -0.514,-0.67 -0.95,-1.396 -1.308,-2.175 -0.358,-0.78 -0.631,-1.599 -0.819,-2.459 -0.189,-0.859 -0.284,-1.719 -0.284,-2.578 0,-1.054 0.163,-2.04 0.489,-2.96 0.325,-0.92 0.776,-1.721 1.355,-2.404 0.579,-0.683 1.27,-1.221 2.073,-1.615 0.803,-0.393 1.687,-0.59 2.652,-0.59 0.562,0 1.133,0.074 1.711,0.223 0.579,0.148 1.147,0.378 1.705,0.686 0.855,0.474 1.602,1.117 2.265,1.83 0.31,0.334 1.389,1.441 0.264,1.197 -0.219,-0.048 -0.431,-0.118 -0.503,-0.151 -0.547,-0.25 -1.021,-0.631 -1.547,-0.921 -0.787,-0.434 -1.634,-0.756 -2.546,-0.756 -0.714,0 -1.381,0.169 -2,0.507 -0.619,0.337 -1.157,0.809 -1.615,1.416 -0.458,0.606 -0.817,1.336 -1.079,2.188 -0.261,0.851 -0.391,1.791 -0.391,2.82 v 0.204 c 1.478,0.129 2.854,0.324 4.128,0.585 1.273,0.261 2.38,0.605 3.32,1.031 0.94,0.426 1.677,0.944 2.212,1.554 0.534,0.61 0.801,1.326 0.801,2.146 0,0.562 -0.121,1.064 -0.362,1.506 -0.241,0.442 -0.564,0.813 -0.97,1.116 -0.406,0.3 -0.878,0.53 -1.416,0.692 -0.538,0.161 -1.105,0.241 -1.699,0.241 -0.9,0 -1.742,-0.141 -2.525,-0.422 m -3.176,-5.929 c 0.113,0.497 0.259,0.984 0.44,1.457 0.18,0.475 0.399,0.922 0.657,1.344 0.257,0.422 0.554,0.792 0.891,1.109 0.338,0.318 0.72,0.569 1.145,0.753 0.426,0.185 0.9,0.277 1.423,0.277 0.353,0 0.682,-0.068 0.987,-0.204 0.306,-0.137 0.569,-0.324 0.791,-0.56 0.22,-0.237 0.393,-0.517 0.518,-0.838 0.124,-0.322 0.186,-0.667 0.186,-1.037 0,-0.554 -0.164,-1.046 -0.494,-1.476 -0.329,-0.43 -0.805,-0.799 -1.428,-1.109 -0.623,-0.31 -1.386,-0.563 -2.29,-0.759 -0.903,-0.198 -1.927,-0.335 -3.067,-0.416 0.048,0.475 0.128,0.96 0.241,1.459"
         id="path20" />
    </clipPath>
    <clipPath
       id="clip_79">
      <path
         transform="matrix(1,0,0,-1,0,768)"
         d="m 736.368,304.669 c -0.727,-0.574 -1.394,-1.364 -2,-2.368 -0.607,-1.004 -1.153,-2.188 -1.639,-3.549 -0.486,-1.362 -0.923,-2.83 -1.308,-4.405 l -0.121,0.012 c 0.072,0.715 0.141,1.432 0.206,2.151 0.063,0.719 0.121,1.41 0.174,2.073 0.052,0.662 0.098,1.283 0.139,1.862 0.04,0.579 0.074,1.086 0.102,1.525 0.028,0.437 0.05,0.794 0.066,1.066 0.016,0.273 0.024,0.438 0.024,0.494 0,0.611 -0.114,1.071 -0.343,1.38 -0.229,0.31 -0.609,0.464 -1.139,0.464 -0.289,0 -0.848,-0.098 -1.675,-0.295 -0.828,-0.197 -1.909,-0.536 -3.242,-1.019 -0.033,-0.011 0.115,-0.612 0.134,-0.645 0.326,-0.559 1.828,0.187 2.313,0.187 0.273,0 0.489,-0.034 0.65,-0.101 0.161,-0.07 0.284,-0.175 0.367,-0.32 0.085,-0.145 0.139,-0.326 0.163,-0.543 0.025,-0.216 0.037,-0.474 0.037,-0.771 0,-0.362 -0.006,-0.856 -0.019,-1.482 -0.011,-0.627 -0.032,-1.336 -0.059,-2.128 -0.029,-0.791 -0.061,-1.642 -0.097,-2.555 -0.036,-0.912 -0.079,-1.831 -0.126,-2.759 -0.049,-0.929 -0.101,-1.843 -0.158,-2.742 -0.056,-0.9 -0.116,-1.731 -0.181,-2.494 l 0.194,-0.013 2.519,0.313 c 0.048,0.522 0.13,1.167 0.247,1.935 0.116,0.767 0.269,1.587 0.458,2.458 0.189,0.872 0.414,1.768 0.675,2.688 0.261,0.919 0.554,1.798 0.879,2.633 0.326,0.836 0.685,1.597 1.079,2.284 0.394,0.687 0.82,1.239 1.277,1.657 0.282,0.257 0.591,0.454 0.929,0.59 0.337,0.137 0.687,0.206 1.048,0.206 0.337,0 0.658,-0.063 0.958,-0.188 0.302,-0.124 0.621,-0.326 0.959,-0.608 h 0.096 c 0.337,0.257 0.584,0.553 0.741,0.886 0.156,0.334 0.235,0.681 0.235,1.043 0,0.28 -0.056,0.54 -0.169,0.777 -0.112,0.237 -0.265,0.442 -0.458,0.615 -0.193,0.173 -0.421,0.307 -0.687,0.404 -0.264,0.096 -0.55,0.144 -0.856,0.144 -0.867,0 -1.665,-0.288 -2.392,-0.862"
         id="path21" />
    </clipPath>
    <clipPath
       id="clip_80">
      <path
         transform="matrix(1,0,0,-1,0,768)"
         d="m 747.298,320.681 c -0.205,-0.041 -0.391,-0.103 -0.555,-0.187 -0.165,-0.084 -0.299,-0.198 -0.404,-0.338 -0.104,-0.141 -0.16,-0.307 -0.169,-0.499 -0.056,-0.845 -0.116,-1.817 -0.18,-2.917 -0.065,-1.102 -0.132,-2.272 -0.205,-3.514 -0.072,-1.241 -0.145,-2.527 -0.217,-3.856 -0.072,-1.331 -0.14,-2.648 -0.205,-3.954 -0.064,-1.305 -0.124,-2.569 -0.18,-3.789 -0.057,-1.222 -0.107,-2.347 -0.151,-3.375 -0.044,-1.029 -0.079,-1.931 -0.102,-2.706 -0.024,-0.775 -0.037,-1.372 -0.037,-1.79 0,-1.149 0.018,-2.123 0.054,-2.923 0.037,-0.799 0.121,-1.448 0.254,-1.946 0.132,-0.498 0.325,-0.857 0.579,-1.079 0.252,-0.22 0.596,-0.331 1.029,-0.331 0.339,0 0.737,0.062 1.2,0.187 0.462,0.124 0.934,0.287 1.416,0.488 0.482,0.201 0.942,0.422 1.38,0.663 0.295,0.162 0.959,0.387 0.997,0.755 -0.424,0.171 -1.009,0.09 -1.603,0.009 -0.998,-0.135 -2.023,-0.272 -2.359,0.791 -0.077,0.241 -0.137,0.559 -0.18,0.952 -0.045,0.393 -0.078,0.876 -0.098,1.446 -0.019,0.571 -0.029,1.254 -0.029,2.049 0,1.269 0.024,2.595 0.072,3.977 0.048,1.382 0.117,2.79 0.205,4.224 0.088,1.434 0.193,2.891 0.313,4.369 0.121,1.479 0.251,2.951 0.392,4.417 0.14,1.466 0.289,2.917 0.446,4.351 0.157,1.434 0.315,2.834 0.476,4.2 -0.531,0.256 -1.037,0.386 -1.518,0.386 -0.21,0 -0.417,-0.021 -0.621,-0.06"
         id="path22" />
    </clipPath>
    <clipPath
       id="clip_81">
      <path
         transform="matrix(1,0,0,-1,0,768)"
         d="m 760.993,305.061 c -0.779,-0.298 -1.487,-0.704 -2.121,-1.217 -0.635,-0.514 -1.195,-1.115 -1.681,-1.802 -0.486,-0.687 -0.894,-1.422 -1.223,-2.205 -0.33,-0.784 -0.579,-1.594 -0.747,-2.429 -0.17,-0.836 -0.254,-1.659 -0.254,-2.471 0,-0.947 0.138,-1.875 0.416,-2.783 0.277,-0.909 0.683,-1.718 1.217,-2.43 0.534,-0.71 1.197,-1.283 1.988,-1.717 0.792,-0.434 1.702,-0.65 2.73,-0.65 0.916,0 1.764,0.148 2.544,0.446 0.779,0.297 1.486,0.702 2.121,1.217 0.634,0.514 1.195,1.115 1.681,1.802 0.486,0.686 0.896,1.421 1.229,2.205 0.333,0.783 0.585,1.593 0.754,2.429 0.168,0.835 0.253,1.659 0.253,2.47 0,0.949 -0.139,1.877 -0.416,2.784 -0.277,0.908 -0.685,1.717 -1.223,2.429 -0.539,0.711 -1.204,1.283 -1.996,1.717 -0.791,0.434 -1.701,0.651 -2.729,0.651 -0.916,0 -1.763,-0.149 -2.543,-0.446 m 0.163,-15.716 c -0.446,0.193 -0.848,0.458 -1.206,0.795 -0.357,0.338 -0.666,0.734 -0.928,1.188 -0.261,0.454 -0.48,0.942 -0.656,1.464 -0.176,0.522 -0.308,1.065 -0.392,1.627 -0.084,0.562 -0.126,1.117 -0.126,1.663 0,0.466 0.026,0.983 0.078,1.549 0.052,0.567 0.142,1.135 0.272,1.705 0.128,0.571 0.298,1.124 0.512,1.664 0.212,0.538 0.481,1.016 0.806,1.433 0.326,0.418 0.712,0.752 1.158,1.001 0.446,0.248 0.962,0.374 1.549,0.374 0.538,0 1.03,-0.097 1.476,-0.289 0.446,-0.193 0.847,-0.457 1.205,-0.79 0.358,-0.334 0.667,-0.728 0.928,-1.18 0.261,-0.455 0.48,-0.941 0.658,-1.459 0.176,-0.519 0.306,-1.057 0.39,-1.616 0.085,-0.558 0.127,-1.114 0.127,-1.668 0,-0.475 -0.026,-0.993 -0.078,-1.556 -0.053,-0.562 -0.143,-1.131 -0.271,-1.704 -0.129,-0.575 -0.3,-1.132 -0.512,-1.67 -0.214,-0.539 -0.483,-1.017 -0.809,-1.433 -0.324,-0.419 -0.711,-0.754 -1.156,-1.008 -0.446,-0.252 -0.962,-0.379 -1.549,-0.379 -0.538,0 -1.03,0.097 -1.476,0.289"
         id="path23" />
    </clipPath>
    <clipPath
       id="clip_82">
      <path
         transform="matrix(1,0,0,-1,0,768)"
         d="m 785.203,304.928 c -0.714,-0.393 -1.434,-1.034 -2.157,-1.922 -0.723,-0.888 -1.435,-2.045 -2.133,-3.471 -0.699,-1.426 -1.355,-3.176 -1.965,-5.249 l -0.072,0.013 c 0.072,0.698 0.141,1.4 0.205,2.102 0.064,0.703 0.122,1.385 0.175,2.043 0.051,0.659 0.098,1.28 0.138,1.863 0.041,0.582 0.074,1.098 0.102,1.548 0.029,0.45 0.051,0.821 0.067,1.115 0.016,0.293 0.024,0.479 0.024,0.56 0,0.675 -0.13,1.151 -0.391,1.429 -1.085,1.152 -3.833,-0.059 -4.972,-0.594 -0.219,-0.104 -0.825,-0.547 -1.08,-0.371 0.146,-0.153 0.352,-0.152 0.555,-0.146 0.823,0.028 1.701,-0.041 2.479,-0.33 0.151,-0.056 0.277,-0.151 0.378,-0.283 0.1,-0.133 0.175,-0.311 0.223,-0.536 0.048,-0.225 0.072,-0.502 0.072,-0.832 0,-0.362 -0.006,-0.856 -0.018,-1.482 -0.012,-0.627 -0.032,-1.336 -0.06,-2.128 -0.029,-0.791 -0.06,-1.642 -0.096,-2.555 -0.036,-0.912 -0.079,-1.831 -0.126,-2.759 -0.049,-0.929 -0.101,-1.843 -0.158,-2.742 -0.056,-0.9 -0.116,-1.731 -0.181,-2.494 l 0.193,-0.013 2.52,0.313 c 0.064,1.189 0.22,2.379 0.469,3.568 0.249,1.189 0.563,2.328 0.94,3.417 0.378,1.088 0.802,2.101 1.272,3.037 0.47,0.936 0.96,1.747 1.47,2.434 0.51,0.687 1.022,1.228 1.537,1.621 0.514,0.394 1.004,0.59 1.47,0.59 0.586,0 1.057,-0.223 1.41,-0.668 0.353,-0.447 0.531,-1.139 0.531,-2.079 0,-0.354 -0.026,-0.825 -0.079,-1.417 -0.052,-0.59 -0.11,-1.246 -0.175,-1.97 -0.064,-0.723 -0.122,-1.484 -0.175,-2.284 -0.052,-0.799 -0.078,-1.576 -0.078,-2.332 0,-0.618 0.019,-1.197 0.055,-1.735 0.036,-0.538 0.116,-1.009 0.241,-1.41 0.124,-0.402 0.311,-0.72 0.56,-0.953 0.249,-0.233 0.59,-0.349 1.024,-0.349 0.37,0 0.796,0.062 1.278,0.187 0.482,0.124 0.966,0.287 1.452,0.488 0.202,0.084 0.399,0.173 0.594,0.264 0.089,0.048 0.179,0.094 0.265,0.147 0.144,0.089 0.28,0.185 0.415,0.284 0.003,0.002 0.006,0.004 0.008,0.006 0.033,0.026 0.065,0.052 0.097,0.079 0.063,0.054 0.125,0.11 0.186,0.167 0.101,0.095 0.192,0.2 0.283,0.303 0.142,0.292 0.257,0.596 0.41,0.73 10e-4,0.003 0.002,0.005 0.003,0.009 -0.465,-0.199 -0.916,-0.361 -1.363,-0.476 -0.45,-0.117 -0.884,-0.175 -1.301,-0.175 -0.29,0 -0.535,0.042 -0.736,0.126 -0.2,0.084 -0.36,0.242 -0.482,0.47 -0.121,0.229 -0.207,0.54 -0.259,0.934 -0.052,0.394 -0.078,0.904 -0.078,1.531 0,0.362 0.014,0.786 0.042,1.271 0.028,0.486 0.063,0.999 0.102,1.537 0.041,0.538 0.087,1.087 0.139,1.645 0.052,0.558 0.098,1.087 0.139,1.585 0.04,0.498 0.073,0.95 0.102,1.356 0.028,0.406 0.042,0.729 0.042,0.97 0,0.828 -0.096,1.533 -0.289,2.115 -0.193,0.583 -0.452,1.059 -0.777,1.428 -0.326,0.37 -0.698,0.639 -1.115,0.808 -0.418,0.169 -0.851,0.252 -1.301,0.252 -0.651,0 -1.334,-0.197 -2.05,-0.59"
         id="path24" />
    </clipPath>
    <clipPath
       id="clip_83">
      <path
         transform="matrix(1,0,0,-1,0,768)"
         d="m 809.155,316.396 c -0.832,-0.166 -1.72,-0.326 -2.465,-0.749 -0.018,-0.009 -0.032,-0.024 -0.047,-0.037 0.083,-0.057 0.157,-0.127 0.22,-0.207 0,0 0,-0.001 10e-4,-0.001 -0.113,0.154 -0.025,0.037 0.017,-0.006 0.041,-0.018 0.06,-0.04 0.052,-0.041 0.003,-0.002 0.008,-0.006 0.012,-0.009 0.007,-0.003 0.014,-0.007 0.021,-0.01 0.053,-0.016 0.159,-0.057 0.184,-0.062 0.035,-0.009 0.072,-0.015 0.108,-0.022 0.002,0 0.003,0 0.005,0 0.364,-0.033 0.73,0 1.094,0.014 0.776,0.031 1.606,-0.079 2.104,-0.694 0.024,-0.026 0.057,-0.045 0.077,-0.073 0.129,-0.169 0.212,-0.387 0.247,-0.656 0.037,-0.27 0.055,-0.594 0.055,-0.972 0,-1.357 -0.007,-2.682 -0.018,-3.976 -0.012,-1.294 -0.029,-2.585 -0.049,-3.875 -0.02,-1.29 -0.048,-2.587 -0.085,-3.893 -0.035,-1.305 -0.078,-2.645 -0.126,-4.019 -0.056,-1.639 -0.123,-3.2 -0.198,-4.682 -0.077,-1.483 -0.189,-2.861 -0.338,-4.134 -0.148,-1.273 -0.346,-2.422 -0.59,-3.447 -0.245,-1.024 -0.563,-1.9 -0.953,-2.628 -0.389,-0.727 -0.87,-1.285 -1.439,-1.674 -0.571,-0.39 -1.25,-0.585 -2.037,-0.585 -0.755,0 -1.461,0.187 -2.115,0.56 -0.655,0.374 -1.228,0.998 -1.718,1.874 -0.265,0 -0.512,-0.054 -0.741,-0.163 -0.23,-0.108 -0.432,-0.248 -0.609,-0.421 -0.177,-0.173 -0.315,-0.365 -0.416,-0.579 -0.1,-0.212 -0.15,-0.419 -0.15,-0.621 0,-0.361 0.11,-0.708 0.331,-1.042 0.221,-0.333 0.528,-0.625 0.922,-0.873 0.394,-0.249 0.862,-0.448 1.404,-0.597 0.543,-0.149 1.135,-0.223 1.778,-0.223 0.482,0 0.976,0.049 1.482,0.145 0.507,0.096 1.013,0.257 1.518,0.482 0.507,0.225 1.003,0.522 1.489,0.891 0.486,0.37 0.948,0.828 1.386,1.374 0.437,0.547 0.841,1.191 1.211,1.935 0.37,0.743 0.691,1.596 0.964,2.561 0.426,1.494 0.766,3.113 1.019,4.857 0.253,1.743 0.45,3.545 0.59,5.405 0.141,1.86 0.243,3.75 0.308,5.67 0.064,1.921 0.12,3.809 0.169,5.666 0.016,0.698 0.034,1.393 0.054,2.084 0.019,0.691 0.04,1.336 0.06,1.935 0.02,0.599 0.037,1.124 0.049,1.579 0.011,0.453 0.017,0.789 0.017,1.006 0,0.514 -0.012,0.972 -0.035,1.373 -0.025,0.402 -0.103,0.742 -0.235,1.019 -0.134,0.277 -0.342,0.486 -0.628,0.626 -0.285,0.141 -0.693,0.212 -1.223,0.212 -0.918,0 -1.833,-0.119 -2.733,-0.297"
         id="path25" />
    </clipPath>
    <clipPath
       id="clip_84">
      <path
         transform="matrix(1,0,0,-1,0,768)"
         d="m 826.778,305.061 c -0.78,-0.298 -1.487,-0.704 -2.122,-1.217 -0.634,-0.514 -1.195,-1.115 -1.681,-1.802 -0.487,-0.687 -0.893,-1.422 -1.223,-2.205 -0.329,-0.784 -0.579,-1.594 -0.747,-2.429 -0.169,-0.836 -0.254,-1.659 -0.254,-2.471 0,-0.947 0.139,-1.875 0.416,-2.783 0.277,-0.909 0.683,-1.718 1.218,-2.43 0.534,-0.71 1.197,-1.283 1.988,-1.717 0.792,-0.434 1.701,-0.65 2.73,-0.65 0.916,0 1.764,0.148 2.543,0.446 0.779,0.297 1.486,0.702 2.121,1.217 0.635,0.514 1.196,1.115 1.682,1.802 0.486,0.686 0.895,1.421 1.229,2.205 0.333,0.783 0.584,1.593 0.753,2.429 0.169,0.835 0.253,1.659 0.253,2.47 0,0.949 -0.138,1.877 -0.416,2.784 -0.277,0.908 -0.685,1.717 -1.223,2.429 -0.539,0.711 -1.203,1.283 -1.995,1.717 -0.791,0.434 -1.701,0.651 -2.73,0.651 -0.916,0 -1.763,-0.149 -2.542,-0.446 m 0.162,-15.716 c -0.446,0.193 -0.848,0.458 -1.205,0.795 -0.358,0.338 -0.667,0.734 -0.928,1.188 -0.261,0.454 -0.48,0.942 -0.656,1.464 -0.178,0.522 -0.308,1.065 -0.393,1.627 -0.083,0.562 -0.126,1.117 -0.126,1.663 0,0.466 0.026,0.983 0.079,1.549 0.052,0.567 0.142,1.135 0.271,1.705 0.128,0.571 0.298,1.124 0.512,1.664 0.212,0.538 0.482,1.016 0.807,1.433 0.326,0.418 0.711,0.752 1.157,1.001 0.447,0.248 0.962,0.374 1.549,0.374 0.538,0 1.031,-0.097 1.476,-0.289 0.446,-0.193 0.848,-0.457 1.205,-0.79 0.358,-0.334 0.667,-0.728 0.928,-1.18 0.261,-0.455 0.481,-0.941 0.657,-1.459 0.178,-0.519 0.307,-1.057 0.392,-1.616 0.084,-0.558 0.127,-1.114 0.127,-1.668 0,-0.475 -0.026,-0.993 -0.079,-1.556 -0.052,-0.562 -0.143,-1.131 -0.271,-1.704 -0.128,-0.575 -0.299,-1.132 -0.512,-1.67 -0.213,-0.539 -0.482,-1.017 -0.808,-1.433 -0.325,-0.419 -0.711,-0.754 -1.156,-1.008 -0.447,-0.252 -0.963,-0.379 -1.549,-0.379 -0.539,0 -1.031,0.097 -1.477,0.289"
         id="path26" />
    </clipPath>
    <clipPath
       id="clip_86">
      <path
         transform="matrix(1,0,0,-1,0,768)"
         d="m 843.124,305.296 c -0.173,-0.029 -0.336,-0.08 -0.488,-0.156 -0.153,-0.077 -0.282,-0.186 -0.385,-0.326 -0.106,-0.141 -0.165,-0.323 -0.181,-0.548 -0.065,-1.029 -0.117,-2.027 -0.157,-2.996 -0.04,-0.968 -0.073,-1.888 -0.096,-2.76 -0.025,-0.871 -0.043,-1.686 -0.055,-2.446 -0.012,-0.759 -0.018,-1.44 -0.018,-2.042 0,-1.029 0.02,-1.905 0.06,-2.628 0.041,-0.723 0.098,-1.326 0.175,-1.807 0.076,-0.483 0.173,-0.864 0.29,-1.146 0.116,-0.282 0.248,-0.494 0.397,-0.638 0.149,-0.145 0.315,-0.235 0.5,-0.271 0.185,-0.037 0.39,-0.055 0.615,-0.055 0.337,0 0.737,0.062 1.199,0.187 0.462,0.124 0.934,0.287 1.416,0.488 0.437,0.182 0.852,0.383 1.253,0.598 0.091,0.08 0.183,0.158 0.27,0.245 0.136,0.135 0.263,0.279 0.385,0.428 0.003,0.003 0.003,0.004 0.006,0.01 0.029,0.039 0.058,0.079 0.086,0.119 0.054,0.081 0.106,0.163 0.155,0.247 0.044,0.076 0.085,0.153 0.123,0.232 0,10e-4 0.003,0.008 0.004,0.011 l -0.04,0.111 c -0.458,-0.209 -0.91,-0.373 -1.356,-0.488 -0.446,-0.117 -0.862,-0.175 -1.248,-0.175 -0.209,0 -0.395,0.019 -0.56,0.06 -0.164,0.04 -0.309,0.127 -0.434,0.259 -0.125,0.133 -0.229,0.321 -0.313,0.566 -0.084,0.246 -0.155,0.573 -0.211,0.983 -0.056,0.409 -0.096,0.913 -0.121,1.513 -0.024,0.597 -0.036,1.316 -0.036,2.151 0,0.618 0.015,1.311 0.043,2.079 0.028,0.767 0.072,1.58 0.132,2.44 0.06,0.86 0.138,1.749 0.235,2.67 0.096,0.92 0.213,1.838 0.349,2.754 -0.473,0.249 -0.98,0.373 -1.518,0.373 -0.144,0 -0.304,-0.014 -0.476,-0.042"
         id="path28" />
    </clipPath>
    <clipPath
       id="clip_85">
      <path
         transform="matrix(1,0,0,-1,0,768)"
         d="m 843.588,314.528 c -0.233,-0.092 -0.446,-0.234 -0.639,-0.422 -0.193,-0.189 -0.349,-0.422 -0.47,-0.699 -0.12,-0.277 -0.181,-0.597 -0.181,-0.959 0,-0.256 0.041,-0.507 0.121,-0.752 0.08,-0.246 0.197,-0.463 0.349,-0.652 0.153,-0.189 0.339,-0.342 0.555,-0.457 0.216,-0.117 0.466,-0.174 0.747,-0.174 0.297,0 0.568,0.067 0.814,0.204 0.245,0.137 0.454,0.318 0.626,0.543 0.173,0.225 0.307,0.476 0.404,0.752 0.097,0.278 0.144,0.557 0.144,0.838 0,0.266 -0.042,0.512 -0.126,0.742 -0.084,0.228 -0.205,0.432 -0.361,0.608 -0.157,0.177 -0.344,0.316 -0.561,0.416 -0.217,0.1 -0.462,0.15 -0.735,0.15 -0.225,0 -0.454,-0.046 -0.687,-0.138"
         id="path27" />
    </clipPath>
    <clipPath
       id="clip_87">
      <path
         transform="matrix(1,0,0,-1,0,768)"
         d="m 858.416,305.368 c -0.534,-0.101 -1.066,-0.245 -1.597,-0.434 -0.53,-0.189 -1.044,-0.419 -1.543,-0.693 -0.497,-0.273 -0.936,-0.582 -1.313,-0.927 -0.378,-0.346 -0.681,-0.728 -0.91,-1.145 -0.229,-0.419 -0.344,-0.864 -0.344,-1.339 0,-0.288 0.051,-0.55 0.152,-0.783 0.1,-0.233 0.236,-0.43 0.409,-0.59 0.173,-0.161 0.377,-0.284 0.615,-0.368 0.237,-0.084 0.491,-0.126 0.765,-0.126 0.465,0 0.928,0.112 1.386,0.337 l 0.048,0.133 c -0.273,0.37 -0.48,0.749 -0.62,1.138 -0.141,0.39 -0.211,0.778 -0.211,1.164 0,0.329 0.054,0.636 0.163,0.921 0.108,0.286 0.284,0.533 0.53,0.742 0.245,0.209 0.564,0.374 0.958,0.494 0.394,0.121 0.875,0.181 1.446,0.181 0.426,0 0.851,-0.073 1.277,-0.217 0.426,-0.145 0.808,-0.366 1.146,-0.663 0.337,-0.297 0.61,-0.679 0.819,-1.145 0.208,-0.466 0.314,-1.016 0.314,-1.651 0,-0.571 -0.019,-1.093 -0.055,-1.566 -0.036,-0.475 -0.083,-0.965 -0.139,-1.471 -0.876,0 -1.735,-0.054 -2.579,-0.163 -0.844,-0.108 -1.643,-0.273 -2.399,-0.494 -0.755,-0.221 -1.453,-0.499 -2.096,-0.832 -0.643,-0.333 -1.195,-0.729 -1.658,-1.187 -0.461,-0.458 -0.823,-0.976 -1.084,-1.555 -0.261,-0.578 -0.392,-1.22 -0.392,-1.928 0,-0.546 0.09,-1.05 0.271,-1.512 0.181,-0.462 0.434,-0.862 0.76,-1.199 0.326,-0.338 0.716,-0.603 1.175,-0.796 0.457,-0.193 0.964,-0.29 1.519,-0.29 0.675,0 1.319,0.164 1.934,0.489 0.614,0.326 1.193,0.751 1.735,1.278 0.543,0.526 1.041,1.124 1.495,1.795 0.453,0.671 0.853,1.352 1.199,2.043 h 0.072 c -0.04,-0.233 -0.066,-0.454 -0.078,-0.663 -0.012,-0.209 -0.018,-0.418 -0.018,-0.626 0,-0.7 0.088,-1.314 0.265,-1.844 0.176,-0.531 0.425,-0.971 0.747,-1.32 0.321,-0.35 0.704,-0.613 1.145,-0.79 0.442,-0.176 0.924,-0.265 1.447,-0.265 0.07,0 0.138,0.008 0.207,0.01 0.367,0.075 0.735,0.171 1.118,0.313 0.207,0.079 0.441,0.185 0.703,0.333 0.111,0.063 0.22,0.128 0.326,0.198 0.126,0.084 0.224,0.158 0.273,0.2 0.2,0.169 0.391,0.355 0.552,0.562 0.011,0.017 0.04,0.057 0.051,0.076 0.034,0.05 0.067,0.101 0.099,0.153 0.037,0.062 0.072,0.124 0.104,0.188 -0.111,0.081 -0.415,-0.094 -0.709,-0.222 -0.437,-0.191 -0.906,-0.328 -1.387,-0.328 -0.699,0 -1.263,0.29 -1.693,0.874 -0.43,0.582 -0.645,1.452 -0.645,2.609 0,0.73 0.022,1.466 0.067,2.205 0.044,0.739 0.093,1.456 0.15,2.152 0.056,0.694 0.106,1.36 0.151,1.994 0.043,0.634 0.066,1.217 0.066,1.748 0,0.771 -0.087,1.462 -0.259,2.072 -0.173,0.612 -0.446,1.132 -0.819,1.561 -0.375,0.429 -0.861,0.758 -1.459,0.983 -0.599,0.225 -1.32,0.336 -2.164,0.336 -0.457,0 -0.954,-0.049 -1.488,-0.15 M 855.5,289.954 c -0.229,0.124 -0.418,0.295 -0.567,0.512 -0.149,0.217 -0.257,0.468 -0.325,0.753 -0.069,0.286 -0.103,0.585 -0.103,0.898 0,0.555 0.093,1.043 0.277,1.465 0.186,0.421 0.44,0.786 0.765,1.096 0.326,0.309 0.714,0.569 1.164,0.778 0.45,0.208 0.938,0.377 1.464,0.505 0.526,0.129 1.083,0.224 1.67,0.284 0.586,0.06 1.176,0.099 1.771,0.114 -0.056,-0.57 -0.175,-1.127 -0.356,-1.668 -0.181,-0.543 -0.407,-1.06 -0.681,-1.549 -0.273,-0.491 -0.58,-0.943 -0.922,-1.357 -0.341,-0.413 -0.699,-0.768 -1.072,-1.066 -0.374,-0.297 -0.754,-0.53 -1.139,-0.699 -0.386,-0.169 -0.759,-0.252 -1.121,-0.252 -0.322,0 -0.597,0.062 -0.825,0.186"
         id="path29" />
    </clipPath>
    <clipPath
       id="clip_88">
      <path
         transform="matrix(1,0,0,-1,0,768)"
         d="m 873.821,305.098 c -0.412,-0.212 -0.789,-0.47 -1.132,-0.776 -0.345,-0.306 -0.64,-0.654 -0.888,-1.045 -0.247,-0.389 -0.439,-0.818 -0.577,-1.284 -0.137,-0.466 -0.207,-0.97 -0.207,-1.51 0,-0.434 0.053,-0.829 0.157,-1.185 0.104,-0.358 0.247,-0.683 0.428,-0.98 0.181,-0.295 0.397,-0.565 0.646,-0.806 0.251,-0.242 0.521,-0.468 0.811,-0.677 0.291,-0.209 0.595,-0.406 0.914,-0.589 0.319,-0.184 0.638,-0.362 0.96,-0.535 0.306,-0.168 0.606,-0.336 0.902,-0.501 0.296,-0.166 0.578,-0.339 0.846,-0.52 0.266,-0.181 0.515,-0.374 0.741,-0.577 0.783,-0.704 1.215,-1.727 1.106,-2.784 -0.231,-2.25 -2.569,-3.287 -4.601,-2.888 -0.511,0.101 -1.039,0.228 -1.49,0.499 -0.229,0.137 -0.39,0.309 -0.564,0.507 -0.091,0.104 -0.397,0.448 -0.431,0.122 -0.04,-0.394 0.535,-1.046 0.784,-1.307 0.433,-0.453 0.991,-0.758 1.61,-0.862 1.326,-0.224 2.791,0.109 3.926,0.814 1.566,0.974 2.547,2.692 2.547,4.552 0,0.424 -0.052,0.809 -0.157,1.155 -0.104,0.347 -0.247,0.664 -0.428,0.952 -0.181,0.288 -0.395,0.551 -0.643,0.788 -0.247,0.237 -0.515,0.456 -0.806,0.658 -0.291,0.201 -0.596,0.391 -0.915,0.569 -0.318,0.179 -0.638,0.352 -0.959,0.521 -0.311,0.168 -0.619,0.336 -0.925,0.504 -0.306,0.169 -0.597,0.345 -0.872,0.531 -0.276,0.187 -0.53,0.384 -0.765,0.594 -0.234,0.208 -0.437,0.441 -0.608,0.695 -0.171,0.255 -0.304,0.534 -0.401,0.838 -0.097,0.303 -0.145,0.641 -0.145,1.013 0,0.459 0.084,0.88 0.252,1.261 0.071,0.163 0.156,0.312 0.25,0.455 0.697,1.062 1.927,1.648 3.174,1.728 0.641,0.041 1.277,-0.063 1.868,-0.319 0.619,-0.268 1.089,-0.724 1.659,-1.056 -0.054,0.816 -0.962,1.54 -1.655,1.825 -0.516,0.212 -1.08,0.307 -1.652,0.307 -0.962,0 -1.946,-0.267 -2.76,-0.687"
         id="path30" />
    </clipPath>
    <clipPath
       id="clip_75-1">
      <path
         transform="matrix(1,0,0,-1,0,768)"
         d="m 641.376,321.772 c -0.629,-0.009 -1.239,-0.018 -1.579,-0.011 l -4.546,-0.034 c -15.061,-0.027 -30.42,-0.531 -45.458,-0.428 -2.443,0.058 -3.705,-3.007 -2.028,-4.733 l 0.389,-0.415 c 0.979,-1.021 6.687,-7.168 7.746,-8.321 5.598,-6.108 11.38,-12.246 17.198,-18.154 1.341,-1.632 3.758,-1.892 5.315,-0.421 l 1.634,1.616 c 6.624,6.585 17.546,17.546 24.127,24.091 0.838,0.87 2.004,1.737 2.168,3.022 0.339,1.877 -1.197,3.797 -3.115,3.795 -0.132,0.004 -0.304,0.006 -0.502,0.006 -0.388,0 -0.874,-0.007 -1.349,-0.013 m -6.125,-1.082 c 1.464,-0.009 5.418,-0.044 6.82,-0.052 0.151,-0.005 0.303,-0.003 0.454,-0.002 0.526,0.003 1.042,0.007 1.516,-0.228 0.792,-0.408 1.248,-1.345 1.094,-2.219 -0.088,-0.626 -0.597,-1.117 -1.037,-1.528 l -0.818,-0.79 c -6.668,-6.484 -17.812,-17.163 -24.521,-23.689 l -1.615,-1.564 c -0.663,-0.626 -1.789,-0.599 -2.421,0.057 l -0.1,0.101 -0.2,0.201 c -5.796,5.927 -11.835,11.818 -17.835,17.529 l -6.553,6.306 c -0.47,0.509 -2.02,1.867 -2.367,2.403 -1.121,1.578 0.206,3.95 2.125,3.903 15.044,0.106 30.392,-0.404 45.458,-0.428"
         id="path17-1" />
    </clipPath>
    <clipPath
       id="clip_74-5">
      <path
         transform="matrix(1,0,0,-1,0,768)"
         d="m 590.927,327.828 c -0.172,-1.607 1.115,-3.263 1.843,-4.57 4.457,-7.486 9.499,-15.667 14.212,-22.937 l 4.829,-7.592 1.196,-1.907 c 1.343,-2.203 4.563,-2.12 5.782,0.137 6.719,11.716 13.96,23.097 20.801,34.746 1.41,2.453 -0.204,6.176 -3.196,6.263 -0.146,0.012 -0.265,0.011 -0.384,0.011 -0.065,0 -0.129,0 -0.197,0.002 l -1.124,0.008 c -11.195,0.075 -27.098,0.212 -38.222,0.32 l -1.124,0.011 c -0.072,0.004 -0.144,0.006 -0.215,0.006 -2.349,0 -4.207,-2.219 -4.201,-4.498 m 5.54,2.737 c 11.147,0.121 27.003,0.232 38.222,0.319 0.342,0.005 1.355,0.011 1.666,0.005 2.24,-0.044 3.397,-2.898 2.374,-4.738 -6.732,-11.668 -13.197,-23.527 -20.096,-35.101 -0.731,-1.271 -2.344,-1.959 -3.729,-1.409 -1.424,0.487 -1.919,2.066 -2.709,3.318 l -4.384,7.856 c -4.555,8.294 -9.681,17.202 -14.588,25.332 -1.143,1.679 -0.051,4.504 2.12,4.407 z"
         id="path16-2" />
    </clipPath>
    <clipPath
       id="clip_76-7">
      <path
         transform="matrix(1,0,0,-1,0,768)"
         d="m 672.68,315.336 c -0.647,-0.334 -1.242,-0.742 -1.784,-1.224 -0.543,-0.482 -1.009,-1.03 -1.399,-1.645 -0.389,-0.614 -0.693,-1.289 -0.91,-2.025 -0.216,-0.735 -0.324,-1.529 -0.324,-2.38 0,-0.683 0.081,-1.305 0.246,-1.869 0.165,-0.561 0.39,-1.076 0.675,-1.542 0.285,-0.465 0.625,-0.89 1.019,-1.271 0.393,-0.381 0.819,-0.737 1.277,-1.066 0.458,-0.331 0.938,-0.639 1.44,-0.929 0.502,-0.289 1.006,-0.571 1.513,-0.843 0.482,-0.265 0.956,-0.529 1.422,-0.79 0.466,-0.261 0.91,-0.534 1.332,-0.82 0.421,-0.285 0.812,-0.588 1.169,-0.91 1.233,-1.108 1.913,-2.721 1.743,-4.385 -0.365,-3.547 -4.048,-5.182 -7.252,-4.552 -0.927,0.181 -1.906,0.535 -2.662,1.117 -0.678,0.521 -1.677,1.668 -1.801,2.553 0.203,-1.45 0.761,-2.883 1.783,-3.953 0.682,-0.714 1.562,-1.195 2.537,-1.36 2.09,-0.352 4.398,0.173 6.187,1.284 2.469,1.535 4.015,4.243 4.015,7.176 0,0.666 -0.082,1.274 -0.248,1.819 -0.164,0.547 -0.39,1.047 -0.675,1.501 -0.285,0.454 -0.622,0.868 -1.012,1.241 -0.39,0.374 -0.813,0.719 -1.271,1.036 -0.458,0.318 -0.939,0.617 -1.441,0.899 -0.501,0.28 -1.006,0.554 -1.512,0.819 -0.491,0.265 -0.977,0.53 -1.458,0.796 -0.483,0.264 -0.941,0.543 -1.374,0.837 -0.434,0.293 -0.837,0.605 -1.206,0.934 -0.369,0.329 -0.689,0.695 -0.958,1.097 -0.269,0.402 -0.48,0.842 -0.633,1.32 -0.152,0.477 -0.228,1.01 -0.228,1.596 0,0.724 0.132,1.387 0.397,1.989 0.112,0.255 0.246,0.491 0.394,0.717 1.099,1.673 3.038,2.597 5.001,2.723 1.012,0.065 2.014,-0.1 2.945,-0.503 0.976,-0.422 1.717,-1.141 2.615,-1.665 -0.085,1.287 -1.516,2.426 -2.609,2.876 -0.813,0.335 -1.702,0.484 -2.604,0.484 -1.516,0 -3.067,-0.42 -4.349,-1.082"
         id="path18-6" />
    </clipPath>
    <clipPath
       id="clip_77-1">
      <path
         transform="matrix(1,0,0,-1,0,768)"
         d="m 691.087,320.681 c -0.209,-0.041 -0.396,-0.103 -0.561,-0.187 -0.165,-0.084 -0.299,-0.198 -0.403,-0.338 -0.105,-0.141 -0.161,-0.307 -0.17,-0.499 -0.063,-1.254 -0.132,-2.568 -0.204,-3.942 -0.073,-1.374 -0.147,-2.778 -0.223,-4.212 -0.077,-1.434 -0.155,-2.887 -0.235,-4.357 -0.08,-1.47 -0.158,-2.929 -0.235,-4.375 -0.076,-1.447 -0.153,-2.867 -0.229,-4.261 -0.077,-1.393 -0.149,-2.733 -0.217,-4.018 -0.069,-1.286 -0.133,-2.501 -0.193,-3.646 -0.06,-1.146 -0.114,-2.192 -0.163,-3.139 l 0.194,-0.013 2.567,0.313 c 0.063,1.189 0.22,2.379 0.469,3.568 0.249,1.189 0.563,2.328 0.94,3.417 0.378,1.088 0.804,2.101 1.278,3.037 0.474,0.936 0.967,1.747 1.476,2.434 0.51,0.687 1.025,1.228 1.543,1.621 0.518,0.394 1.006,0.59 1.465,0.59 0.586,0 1.052,-0.223 1.397,-0.668 0.345,-0.447 0.518,-1.115 0.518,-2.006 0,-0.37 -0.025,-0.858 -0.078,-1.466 -0.052,-0.606 -0.108,-1.275 -0.169,-2.006 -0.06,-0.731 -0.116,-1.495 -0.168,-2.29 -0.052,-0.795 -0.079,-1.566 -0.079,-2.314 0,-0.618 0.019,-1.197 0.055,-1.735 0.036,-0.538 0.116,-1.009 0.241,-1.41 0.124,-0.402 0.311,-0.72 0.56,-0.953 0.249,-0.233 0.59,-0.349 1.025,-0.349 0.369,0 0.796,0.062 1.277,0.187 0.482,0.124 0.967,0.287 1.453,0.488 0.486,0.201 0.949,0.422 1.392,0.663 0.441,0.241 0.807,0.477 1.096,0.71 -0.884,0.4 -1.971,-0.035 -2.892,-0.035 -0.289,0 -0.535,0.042 -0.736,0.126 -0.2,0.084 -0.361,0.242 -0.482,0.47 -0.12,0.229 -0.206,0.54 -0.259,0.934 -0.052,0.394 -0.078,0.904 -0.078,1.531 0,0.354 0.014,0.775 0.043,1.266 0.027,0.489 0.062,1.008 0.101,1.554 0.041,0.547 0.087,1.101 0.14,1.663 0.051,0.563 0.098,1.099 0.137,1.609 0.041,0.511 0.075,0.972 0.103,1.386 0.028,0.414 0.042,0.742 0.042,0.982 0,0.796 -0.096,1.479 -0.289,2.05 -0.193,0.57 -0.452,1.036 -0.777,1.397 -0.325,0.362 -0.698,0.628 -1.115,0.801 -0.418,0.173 -0.852,0.259 -1.302,0.259 -0.65,0 -1.334,-0.197 -2.049,-0.59 -0.715,-0.393 -1.432,-1.03 -2.151,-1.91 -0.719,-0.88 -1.426,-2.027 -2.121,-3.44 -0.695,-1.415 -1.352,-3.138 -1.97,-5.171 l -0.073,0.012 c 0.081,1.133 0.155,2.191 0.223,3.176 0.068,0.984 0.135,1.932 0.199,2.844 0.065,0.912 0.129,1.81 0.193,2.694 0.064,0.883 0.134,1.79 0.211,2.718 0.076,0.928 0.16,1.898 0.253,2.91 0.092,1.012 0.197,2.104 0.313,3.273 0.116,1.168 0.247,2.438 0.391,3.807 0.145,1.37 0.31,2.875 0.495,4.514 -0.53,0.256 -1.036,0.386 -1.519,0.386 -0.225,0 -0.442,-0.021 -0.65,-0.06"
         id="path19-4" />
    </clipPath>
    <clipPath
       id="clip_78-2">
      <path
         transform="matrix(1,0,0,-1,0,768)"
         d="m 715.918,305.049 c -0.783,-0.281 -1.503,-0.669 -2.158,-1.163 -0.654,-0.494 -1.239,-1.077 -1.753,-1.748 -0.514,-0.67 -0.95,-1.396 -1.308,-2.175 -0.358,-0.78 -0.631,-1.599 -0.819,-2.459 -0.189,-0.859 -0.284,-1.719 -0.284,-2.578 0,-1.054 0.163,-2.04 0.489,-2.96 0.325,-0.92 0.776,-1.721 1.355,-2.404 0.579,-0.683 1.27,-1.221 2.073,-1.615 0.803,-0.393 1.687,-0.59 2.652,-0.59 0.562,0 1.133,0.074 1.711,0.223 0.579,0.148 1.147,0.378 1.705,0.686 0.855,0.474 1.602,1.117 2.265,1.83 0.31,0.334 1.389,1.441 0.264,1.197 -0.219,-0.048 -0.431,-0.118 -0.503,-0.151 -0.547,-0.25 -1.021,-0.631 -1.547,-0.921 -0.787,-0.434 -1.634,-0.756 -2.546,-0.756 -0.714,0 -1.381,0.169 -2,0.507 -0.619,0.337 -1.157,0.809 -1.615,1.416 -0.458,0.606 -0.817,1.336 -1.079,2.188 -0.261,0.851 -0.391,1.791 -0.391,2.82 v 0.204 c 1.478,0.129 2.854,0.324 4.128,0.585 1.273,0.261 2.38,0.605 3.32,1.031 0.94,0.426 1.677,0.944 2.212,1.554 0.534,0.61 0.801,1.326 0.801,2.146 0,0.562 -0.121,1.064 -0.362,1.506 -0.241,0.442 -0.564,0.813 -0.97,1.116 -0.406,0.3 -0.878,0.53 -1.416,0.692 -0.538,0.161 -1.105,0.241 -1.699,0.241 -0.9,0 -1.742,-0.141 -2.525,-0.422 m -3.176,-5.929 c 0.113,0.497 0.259,0.984 0.44,1.457 0.18,0.475 0.399,0.922 0.657,1.344 0.257,0.422 0.554,0.792 0.891,1.109 0.338,0.318 0.72,0.569 1.145,0.753 0.426,0.185 0.9,0.277 1.423,0.277 0.353,0 0.682,-0.068 0.987,-0.204 0.306,-0.137 0.569,-0.324 0.791,-0.56 0.22,-0.237 0.393,-0.517 0.518,-0.838 0.124,-0.322 0.186,-0.667 0.186,-1.037 0,-0.554 -0.164,-1.046 -0.494,-1.476 -0.329,-0.43 -0.805,-0.799 -1.428,-1.109 -0.623,-0.31 -1.386,-0.563 -2.29,-0.759 -0.903,-0.198 -1.927,-0.335 -3.067,-0.416 0.048,0.475 0.128,0.96 0.241,1.459"
         id="path20-3" />
    </clipPath>
    <clipPath
       id="clip_79-2">
      <path
         transform="matrix(1,0,0,-1,0,768)"
         d="m 736.368,304.669 c -0.727,-0.574 -1.394,-1.364 -2,-2.368 -0.607,-1.004 -1.153,-2.188 -1.639,-3.549 -0.486,-1.362 -0.923,-2.83 -1.308,-4.405 l -0.121,0.012 c 0.072,0.715 0.141,1.432 0.206,2.151 0.063,0.719 0.121,1.41 0.174,2.073 0.052,0.662 0.098,1.283 0.139,1.862 0.04,0.579 0.074,1.086 0.102,1.525 0.028,0.437 0.05,0.794 0.066,1.066 0.016,0.273 0.024,0.438 0.024,0.494 0,0.611 -0.114,1.071 -0.343,1.38 -0.229,0.31 -0.609,0.464 -1.139,0.464 -0.289,0 -0.848,-0.098 -1.675,-0.295 -0.828,-0.197 -1.909,-0.536 -3.242,-1.019 -0.033,-0.011 0.115,-0.612 0.134,-0.645 0.326,-0.559 1.828,0.187 2.313,0.187 0.273,0 0.489,-0.034 0.65,-0.101 0.161,-0.07 0.284,-0.175 0.367,-0.32 0.085,-0.145 0.139,-0.326 0.163,-0.543 0.025,-0.216 0.037,-0.474 0.037,-0.771 0,-0.362 -0.006,-0.856 -0.019,-1.482 -0.011,-0.627 -0.032,-1.336 -0.059,-2.128 -0.029,-0.791 -0.061,-1.642 -0.097,-2.555 -0.036,-0.912 -0.079,-1.831 -0.126,-2.759 -0.049,-0.929 -0.101,-1.843 -0.158,-2.742 -0.056,-0.9 -0.116,-1.731 -0.181,-2.494 l 0.194,-0.013 2.519,0.313 c 0.048,0.522 0.13,1.167 0.247,1.935 0.116,0.767 0.269,1.587 0.458,2.458 0.189,0.872 0.414,1.768 0.675,2.688 0.261,0.919 0.554,1.798 0.879,2.633 0.326,0.836 0.685,1.597 1.079,2.284 0.394,0.687 0.82,1.239 1.277,1.657 0.282,0.257 0.591,0.454 0.929,0.59 0.337,0.137 0.687,0.206 1.048,0.206 0.337,0 0.658,-0.063 0.958,-0.188 0.302,-0.124 0.621,-0.326 0.959,-0.608 h 0.096 c 0.337,0.257 0.584,0.553 0.741,0.886 0.156,0.334 0.235,0.681 0.235,1.043 0,0.28 -0.056,0.54 -0.169,0.777 -0.112,0.237 -0.265,0.442 -0.458,0.615 -0.193,0.173 -0.421,0.307 -0.687,0.404 -0.264,0.096 -0.55,0.144 -0.856,0.144 -0.867,0 -1.665,-0.288 -2.392,-0.862"
         id="path21-2" />
    </clipPath>
    <clipPath
       id="clip_80-1">
      <path
         transform="matrix(1,0,0,-1,0,768)"
         d="m 747.298,320.681 c -0.205,-0.041 -0.391,-0.103 -0.555,-0.187 -0.165,-0.084 -0.299,-0.198 -0.404,-0.338 -0.104,-0.141 -0.16,-0.307 -0.169,-0.499 -0.056,-0.845 -0.116,-1.817 -0.18,-2.917 -0.065,-1.102 -0.132,-2.272 -0.205,-3.514 -0.072,-1.241 -0.145,-2.527 -0.217,-3.856 -0.072,-1.331 -0.14,-2.648 -0.205,-3.954 -0.064,-1.305 -0.124,-2.569 -0.18,-3.789 -0.057,-1.222 -0.107,-2.347 -0.151,-3.375 -0.044,-1.029 -0.079,-1.931 -0.102,-2.706 -0.024,-0.775 -0.037,-1.372 -0.037,-1.79 0,-1.149 0.018,-2.123 0.054,-2.923 0.037,-0.799 0.121,-1.448 0.254,-1.946 0.132,-0.498 0.325,-0.857 0.579,-1.079 0.252,-0.22 0.596,-0.331 1.029,-0.331 0.339,0 0.737,0.062 1.2,0.187 0.462,0.124 0.934,0.287 1.416,0.488 0.482,0.201 0.942,0.422 1.38,0.663 0.295,0.162 0.959,0.387 0.997,0.755 -0.424,0.171 -1.009,0.09 -1.603,0.009 -0.998,-0.135 -2.023,-0.272 -2.359,0.791 -0.077,0.241 -0.137,0.559 -0.18,0.952 -0.045,0.393 -0.078,0.876 -0.098,1.446 -0.019,0.571 -0.029,1.254 -0.029,2.049 0,1.269 0.024,2.595 0.072,3.977 0.048,1.382 0.117,2.79 0.205,4.224 0.088,1.434 0.193,2.891 0.313,4.369 0.121,1.479 0.251,2.951 0.392,4.417 0.14,1.466 0.289,2.917 0.446,4.351 0.157,1.434 0.315,2.834 0.476,4.2 -0.531,0.256 -1.037,0.386 -1.518,0.386 -0.21,0 -0.417,-0.021 -0.621,-0.06"
         id="path22-6" />
    </clipPath>
    <clipPath
       id="clip_81-8">
      <path
         transform="matrix(1,0,0,-1,0,768)"
         d="m 760.993,305.061 c -0.779,-0.298 -1.487,-0.704 -2.121,-1.217 -0.635,-0.514 -1.195,-1.115 -1.681,-1.802 -0.486,-0.687 -0.894,-1.422 -1.223,-2.205 -0.33,-0.784 -0.579,-1.594 -0.747,-2.429 -0.17,-0.836 -0.254,-1.659 -0.254,-2.471 0,-0.947 0.138,-1.875 0.416,-2.783 0.277,-0.909 0.683,-1.718 1.217,-2.43 0.534,-0.71 1.197,-1.283 1.988,-1.717 0.792,-0.434 1.702,-0.65 2.73,-0.65 0.916,0 1.764,0.148 2.544,0.446 0.779,0.297 1.486,0.702 2.121,1.217 0.634,0.514 1.195,1.115 1.681,1.802 0.486,0.686 0.896,1.421 1.229,2.205 0.333,0.783 0.585,1.593 0.754,2.429 0.168,0.835 0.253,1.659 0.253,2.47 0,0.949 -0.139,1.877 -0.416,2.784 -0.277,0.908 -0.685,1.717 -1.223,2.429 -0.539,0.711 -1.204,1.283 -1.996,1.717 -0.791,0.434 -1.701,0.651 -2.729,0.651 -0.916,0 -1.763,-0.149 -2.543,-0.446 m 0.163,-15.716 c -0.446,0.193 -0.848,0.458 -1.206,0.795 -0.357,0.338 -0.666,0.734 -0.928,1.188 -0.261,0.454 -0.48,0.942 -0.656,1.464 -0.176,0.522 -0.308,1.065 -0.392,1.627 -0.084,0.562 -0.126,1.117 -0.126,1.663 0,0.466 0.026,0.983 0.078,1.549 0.052,0.567 0.142,1.135 0.272,1.705 0.128,0.571 0.298,1.124 0.512,1.664 0.212,0.538 0.481,1.016 0.806,1.433 0.326,0.418 0.712,0.752 1.158,1.001 0.446,0.248 0.962,0.374 1.549,0.374 0.538,0 1.03,-0.097 1.476,-0.289 0.446,-0.193 0.847,-0.457 1.205,-0.79 0.358,-0.334 0.667,-0.728 0.928,-1.18 0.261,-0.455 0.48,-0.941 0.658,-1.459 0.176,-0.519 0.306,-1.057 0.39,-1.616 0.085,-0.558 0.127,-1.114 0.127,-1.668 0,-0.475 -0.026,-0.993 -0.078,-1.556 -0.053,-0.562 -0.143,-1.131 -0.271,-1.704 -0.129,-0.575 -0.3,-1.132 -0.512,-1.67 -0.214,-0.539 -0.483,-1.017 -0.809,-1.433 -0.324,-0.419 -0.711,-0.754 -1.156,-1.008 -0.446,-0.252 -0.962,-0.379 -1.549,-0.379 -0.538,0 -1.03,0.097 -1.476,0.289"
         id="path23-5" />
    </clipPath>
    <clipPath
       id="clip_82-7">
      <path
         transform="matrix(1,0,0,-1,0,768)"
         d="m 785.203,304.928 c -0.714,-0.393 -1.434,-1.034 -2.157,-1.922 -0.723,-0.888 -1.435,-2.045 -2.133,-3.471 -0.699,-1.426 -1.355,-3.176 -1.965,-5.249 l -0.072,0.013 c 0.072,0.698 0.141,1.4 0.205,2.102 0.064,0.703 0.122,1.385 0.175,2.043 0.051,0.659 0.098,1.28 0.138,1.863 0.041,0.582 0.074,1.098 0.102,1.548 0.029,0.45 0.051,0.821 0.067,1.115 0.016,0.293 0.024,0.479 0.024,0.56 0,0.675 -0.13,1.151 -0.391,1.429 -1.085,1.152 -3.833,-0.059 -4.972,-0.594 -0.219,-0.104 -0.825,-0.547 -1.08,-0.371 0.146,-0.153 0.352,-0.152 0.555,-0.146 0.823,0.028 1.701,-0.041 2.479,-0.33 0.151,-0.056 0.277,-0.151 0.378,-0.283 0.1,-0.133 0.175,-0.311 0.223,-0.536 0.048,-0.225 0.072,-0.502 0.072,-0.832 0,-0.362 -0.006,-0.856 -0.018,-1.482 -0.012,-0.627 -0.032,-1.336 -0.06,-2.128 -0.029,-0.791 -0.06,-1.642 -0.096,-2.555 -0.036,-0.912 -0.079,-1.831 -0.126,-2.759 -0.049,-0.929 -0.101,-1.843 -0.158,-2.742 -0.056,-0.9 -0.116,-1.731 -0.181,-2.494 l 0.193,-0.013 2.52,0.313 c 0.064,1.189 0.22,2.379 0.469,3.568 0.249,1.189 0.563,2.328 0.94,3.417 0.378,1.088 0.802,2.101 1.272,3.037 0.47,0.936 0.96,1.747 1.47,2.434 0.51,0.687 1.022,1.228 1.537,1.621 0.514,0.394 1.004,0.59 1.47,0.59 0.586,0 1.057,-0.223 1.41,-0.668 0.353,-0.447 0.531,-1.139 0.531,-2.079 0,-0.354 -0.026,-0.825 -0.079,-1.417 -0.052,-0.59 -0.11,-1.246 -0.175,-1.97 -0.064,-0.723 -0.122,-1.484 -0.175,-2.284 -0.052,-0.799 -0.078,-1.576 -0.078,-2.332 0,-0.618 0.019,-1.197 0.055,-1.735 0.036,-0.538 0.116,-1.009 0.241,-1.41 0.124,-0.402 0.311,-0.72 0.56,-0.953 0.249,-0.233 0.59,-0.349 1.024,-0.349 0.37,0 0.796,0.062 1.278,0.187 0.482,0.124 0.966,0.287 1.452,0.488 0.202,0.084 0.399,0.173 0.594,0.264 0.089,0.048 0.179,0.094 0.265,0.147 0.144,0.089 0.28,0.185 0.415,0.284 0.003,0.002 0.006,0.004 0.008,0.006 0.033,0.026 0.065,0.052 0.097,0.079 0.063,0.054 0.125,0.11 0.186,0.167 0.101,0.095 0.192,0.2 0.283,0.303 0.142,0.292 0.257,0.596 0.41,0.73 10e-4,0.003 0.002,0.005 0.003,0.009 -0.465,-0.199 -0.916,-0.361 -1.363,-0.476 -0.45,-0.117 -0.884,-0.175 -1.301,-0.175 -0.29,0 -0.535,0.042 -0.736,0.126 -0.2,0.084 -0.36,0.242 -0.482,0.47 -0.121,0.229 -0.207,0.54 -0.259,0.934 -0.052,0.394 -0.078,0.904 -0.078,1.531 0,0.362 0.014,0.786 0.042,1.271 0.028,0.486 0.063,0.999 0.102,1.537 0.041,0.538 0.087,1.087 0.139,1.645 0.052,0.558 0.098,1.087 0.139,1.585 0.04,0.498 0.073,0.95 0.102,1.356 0.028,0.406 0.042,0.729 0.042,0.97 0,0.828 -0.096,1.533 -0.289,2.115 -0.193,0.583 -0.452,1.059 -0.777,1.428 -0.326,0.37 -0.698,0.639 -1.115,0.808 -0.418,0.169 -0.851,0.252 -1.301,0.252 -0.651,0 -1.334,-0.197 -2.05,-0.59"
         id="path24-6" />
    </clipPath>
    <clipPath
       id="clip_83-1">
      <path
         transform="matrix(1,0,0,-1,0,768)"
         d="m 809.155,316.396 c -0.832,-0.166 -1.72,-0.326 -2.465,-0.749 -0.018,-0.009 -0.032,-0.024 -0.047,-0.037 0.083,-0.057 0.157,-0.127 0.22,-0.207 0,0 0,-0.001 10e-4,-0.001 -0.113,0.154 -0.025,0.037 0.017,-0.006 0.041,-0.018 0.06,-0.04 0.052,-0.041 0.003,-0.002 0.008,-0.006 0.012,-0.009 0.007,-0.003 0.014,-0.007 0.021,-0.01 0.053,-0.016 0.159,-0.057 0.184,-0.062 0.035,-0.009 0.072,-0.015 0.108,-0.022 0.002,0 0.003,0 0.005,0 0.364,-0.033 0.73,0 1.094,0.014 0.776,0.031 1.606,-0.079 2.104,-0.694 0.024,-0.026 0.057,-0.045 0.077,-0.073 0.129,-0.169 0.212,-0.387 0.247,-0.656 0.037,-0.27 0.055,-0.594 0.055,-0.972 0,-1.357 -0.007,-2.682 -0.018,-3.976 -0.012,-1.294 -0.029,-2.585 -0.049,-3.875 -0.02,-1.29 -0.048,-2.587 -0.085,-3.893 -0.035,-1.305 -0.078,-2.645 -0.126,-4.019 -0.056,-1.639 -0.123,-3.2 -0.198,-4.682 -0.077,-1.483 -0.189,-2.861 -0.338,-4.134 -0.148,-1.273 -0.346,-2.422 -0.59,-3.447 -0.245,-1.024 -0.563,-1.9 -0.953,-2.628 -0.389,-0.727 -0.87,-1.285 -1.439,-1.674 -0.571,-0.39 -1.25,-0.585 -2.037,-0.585 -0.755,0 -1.461,0.187 -2.115,0.56 -0.655,0.374 -1.228,0.998 -1.718,1.874 -0.265,0 -0.512,-0.054 -0.741,-0.163 -0.23,-0.108 -0.432,-0.248 -0.609,-0.421 -0.177,-0.173 -0.315,-0.365 -0.416,-0.579 -0.1,-0.212 -0.15,-0.419 -0.15,-0.621 0,-0.361 0.11,-0.708 0.331,-1.042 0.221,-0.333 0.528,-0.625 0.922,-0.873 0.394,-0.249 0.862,-0.448 1.404,-0.597 0.543,-0.149 1.135,-0.223 1.778,-0.223 0.482,0 0.976,0.049 1.482,0.145 0.507,0.096 1.013,0.257 1.518,0.482 0.507,0.225 1.003,0.522 1.489,0.891 0.486,0.37 0.948,0.828 1.386,1.374 0.437,0.547 0.841,1.191 1.211,1.935 0.37,0.743 0.691,1.596 0.964,2.561 0.426,1.494 0.766,3.113 1.019,4.857 0.253,1.743 0.45,3.545 0.59,5.405 0.141,1.86 0.243,3.75 0.308,5.67 0.064,1.921 0.12,3.809 0.169,5.666 0.016,0.698 0.034,1.393 0.054,2.084 0.019,0.691 0.04,1.336 0.06,1.935 0.02,0.599 0.037,1.124 0.049,1.579 0.011,0.453 0.017,0.789 0.017,1.006 0,0.514 -0.012,0.972 -0.035,1.373 -0.025,0.402 -0.103,0.742 -0.235,1.019 -0.134,0.277 -0.342,0.486 -0.628,0.626 -0.285,0.141 -0.693,0.212 -1.223,0.212 -0.918,0 -1.833,-0.119 -2.733,-0.297"
         id="path25-8" />
    </clipPath>
    <clipPath
       id="clip_84-9">
      <path
         transform="matrix(1,0,0,-1,0,768)"
         d="m 826.778,305.061 c -0.78,-0.298 -1.487,-0.704 -2.122,-1.217 -0.634,-0.514 -1.195,-1.115 -1.681,-1.802 -0.487,-0.687 -0.893,-1.422 -1.223,-2.205 -0.329,-0.784 -0.579,-1.594 -0.747,-2.429 -0.169,-0.836 -0.254,-1.659 -0.254,-2.471 0,-0.947 0.139,-1.875 0.416,-2.783 0.277,-0.909 0.683,-1.718 1.218,-2.43 0.534,-0.71 1.197,-1.283 1.988,-1.717 0.792,-0.434 1.701,-0.65 2.73,-0.65 0.916,0 1.764,0.148 2.543,0.446 0.779,0.297 1.486,0.702 2.121,1.217 0.635,0.514 1.196,1.115 1.682,1.802 0.486,0.686 0.895,1.421 1.229,2.205 0.333,0.783 0.584,1.593 0.753,2.429 0.169,0.835 0.253,1.659 0.253,2.47 0,0.949 -0.138,1.877 -0.416,2.784 -0.277,0.908 -0.685,1.717 -1.223,2.429 -0.539,0.711 -1.203,1.283 -1.995,1.717 -0.791,0.434 -1.701,0.651 -2.73,0.651 -0.916,0 -1.763,-0.149 -2.542,-0.446 m 0.162,-15.716 c -0.446,0.193 -0.848,0.458 -1.205,0.795 -0.358,0.338 -0.667,0.734 -0.928,1.188 -0.261,0.454 -0.48,0.942 -0.656,1.464 -0.178,0.522 -0.308,1.065 -0.393,1.627 -0.083,0.562 -0.126,1.117 -0.126,1.663 0,0.466 0.026,0.983 0.079,1.549 0.052,0.567 0.142,1.135 0.271,1.705 0.128,0.571 0.298,1.124 0.512,1.664 0.212,0.538 0.482,1.016 0.807,1.433 0.326,0.418 0.711,0.752 1.157,1.001 0.447,0.248 0.962,0.374 1.549,0.374 0.538,0 1.031,-0.097 1.476,-0.289 0.446,-0.193 0.848,-0.457 1.205,-0.79 0.358,-0.334 0.667,-0.728 0.928,-1.18 0.261,-0.455 0.481,-0.941 0.657,-1.459 0.178,-0.519 0.307,-1.057 0.392,-1.616 0.084,-0.558 0.127,-1.114 0.127,-1.668 0,-0.475 -0.026,-0.993 -0.079,-1.556 -0.052,-0.562 -0.143,-1.131 -0.271,-1.704 -0.128,-0.575 -0.299,-1.132 -0.512,-1.67 -0.213,-0.539 -0.482,-1.017 -0.808,-1.433 -0.325,-0.419 -0.711,-0.754 -1.156,-1.008 -0.447,-0.252 -0.963,-0.379 -1.549,-0.379 -0.539,0 -1.031,0.097 -1.477,0.289"
         id="path26-2" />
    </clipPath>
    <clipPath
       id="clip_86-7">
      <path
         transform="matrix(1,0,0,-1,0,768)"
         d="m 843.124,305.296 c -0.173,-0.029 -0.336,-0.08 -0.488,-0.156 -0.153,-0.077 -0.282,-0.186 -0.385,-0.326 -0.106,-0.141 -0.165,-0.323 -0.181,-0.548 -0.065,-1.029 -0.117,-2.027 -0.157,-2.996 -0.04,-0.968 -0.073,-1.888 -0.096,-2.76 -0.025,-0.871 -0.043,-1.686 -0.055,-2.446 -0.012,-0.759 -0.018,-1.44 -0.018,-2.042 0,-1.029 0.02,-1.905 0.06,-2.628 0.041,-0.723 0.098,-1.326 0.175,-1.807 0.076,-0.483 0.173,-0.864 0.29,-1.146 0.116,-0.282 0.248,-0.494 0.397,-0.638 0.149,-0.145 0.315,-0.235 0.5,-0.271 0.185,-0.037 0.39,-0.055 0.615,-0.055 0.337,0 0.737,0.062 1.199,0.187 0.462,0.124 0.934,0.287 1.416,0.488 0.437,0.182 0.852,0.383 1.253,0.598 0.091,0.08 0.183,0.158 0.27,0.245 0.136,0.135 0.263,0.279 0.385,0.428 0.003,0.003 0.003,0.004 0.006,0.01 0.029,0.039 0.058,0.079 0.086,0.119 0.054,0.081 0.106,0.163 0.155,0.247 0.044,0.076 0.085,0.153 0.123,0.232 0,10e-4 0.003,0.008 0.004,0.011 l -0.04,0.111 c -0.458,-0.209 -0.91,-0.373 -1.356,-0.488 -0.446,-0.117 -0.862,-0.175 -1.248,-0.175 -0.209,0 -0.395,0.019 -0.56,0.06 -0.164,0.04 -0.309,0.127 -0.434,0.259 -0.125,0.133 -0.229,0.321 -0.313,0.566 -0.084,0.246 -0.155,0.573 -0.211,0.983 -0.056,0.409 -0.096,0.913 -0.121,1.513 -0.024,0.597 -0.036,1.316 -0.036,2.151 0,0.618 0.015,1.311 0.043,2.079 0.028,0.767 0.072,1.58 0.132,2.44 0.06,0.86 0.138,1.749 0.235,2.67 0.096,0.92 0.213,1.838 0.349,2.754 -0.473,0.249 -0.98,0.373 -1.518,0.373 -0.144,0 -0.304,-0.014 -0.476,-0.042"
         id="path28-9" />
    </clipPath>
    <clipPath
       id="clip_87-5">
      <path
         transform="matrix(1,0,0,-1,0,768)"
         d="m 858.416,305.368 c -0.534,-0.101 -1.066,-0.245 -1.597,-0.434 -0.53,-0.189 -1.044,-0.419 -1.543,-0.693 -0.497,-0.273 -0.936,-0.582 -1.313,-0.927 -0.378,-0.346 -0.681,-0.728 -0.91,-1.145 -0.229,-0.419 -0.344,-0.864 -0.344,-1.339 0,-0.288 0.051,-0.55 0.152,-0.783 0.1,-0.233 0.236,-0.43 0.409,-0.59 0.173,-0.161 0.377,-0.284 0.615,-0.368 0.237,-0.084 0.491,-0.126 0.765,-0.126 0.465,0 0.928,0.112 1.386,0.337 l 0.048,0.133 c -0.273,0.37 -0.48,0.749 -0.62,1.138 -0.141,0.39 -0.211,0.778 -0.211,1.164 0,0.329 0.054,0.636 0.163,0.921 0.108,0.286 0.284,0.533 0.53,0.742 0.245,0.209 0.564,0.374 0.958,0.494 0.394,0.121 0.875,0.181 1.446,0.181 0.426,0 0.851,-0.073 1.277,-0.217 0.426,-0.145 0.808,-0.366 1.146,-0.663 0.337,-0.297 0.61,-0.679 0.819,-1.145 0.208,-0.466 0.314,-1.016 0.314,-1.651 0,-0.571 -0.019,-1.093 -0.055,-1.566 -0.036,-0.475 -0.083,-0.965 -0.139,-1.471 -0.876,0 -1.735,-0.054 -2.579,-0.163 -0.844,-0.108 -1.643,-0.273 -2.399,-0.494 -0.755,-0.221 -1.453,-0.499 -2.096,-0.832 -0.643,-0.333 -1.195,-0.729 -1.658,-1.187 -0.461,-0.458 -0.823,-0.976 -1.084,-1.555 -0.261,-0.578 -0.392,-1.22 -0.392,-1.928 0,-0.546 0.09,-1.05 0.271,-1.512 0.181,-0.462 0.434,-0.862 0.76,-1.199 0.326,-0.338 0.716,-0.603 1.175,-0.796 0.457,-0.193 0.964,-0.29 1.519,-0.29 0.675,0 1.319,0.164 1.934,0.489 0.614,0.326 1.193,0.751 1.735,1.278 0.543,0.526 1.041,1.124 1.495,1.795 0.453,0.671 0.853,1.352 1.199,2.043 h 0.072 c -0.04,-0.233 -0.066,-0.454 -0.078,-0.663 -0.012,-0.209 -0.018,-0.418 -0.018,-0.626 0,-0.7 0.088,-1.314 0.265,-1.844 0.176,-0.531 0.425,-0.971 0.747,-1.32 0.321,-0.35 0.704,-0.613 1.145,-0.79 0.442,-0.176 0.924,-0.265 1.447,-0.265 0.07,0 0.138,0.008 0.207,0.01 0.367,0.075 0.735,0.171 1.118,0.313 0.207,0.079 0.441,0.185 0.703,0.333 0.111,0.063 0.22,0.128 0.326,0.198 0.126,0.084 0.224,0.158 0.273,0.2 0.2,0.169 0.391,0.355 0.552,0.562 0.011,0.017 0.04,0.057 0.051,0.076 0.034,0.05 0.067,0.101 0.099,0.153 0.037,0.062 0.072,0.124 0.104,0.188 -0.111,0.081 -0.415,-0.094 -0.709,-0.222 -0.437,-0.191 -0.906,-0.328 -1.387,-0.328 -0.699,0 -1.263,0.29 -1.693,0.874 -0.43,0.582 -0.645,1.452 -0.645,2.609 0,0.73 0.022,1.466 0.067,2.205 0.044,0.739 0.093,1.456 0.15,2.152 0.056,0.694 0.106,1.36 0.151,1.994 0.043,0.634 0.066,1.217 0.066,1.748 0,0.771 -0.087,1.462 -0.259,2.072 -0.173,0.612 -0.446,1.132 -0.819,1.561 -0.375,0.429 -0.861,0.758 -1.459,0.983 -0.599,0.225 -1.32,0.336 -2.164,0.336 -0.457,0 -0.954,-0.049 -1.488,-0.15 M 855.5,289.954 c -0.229,0.124 -0.418,0.295 -0.567,0.512 -0.149,0.217 -0.257,0.468 -0.325,0.753 -0.069,0.286 -0.103,0.585 -0.103,0.898 0,0.555 0.093,1.043 0.277,1.465 0.186,0.421 0.44,0.786 0.765,1.096 0.326,0.309 0.714,0.569 1.164,0.778 0.45,0.208 0.938,0.377 1.464,0.505 0.526,0.129 1.083,0.224 1.67,0.284 0.586,0.06 1.176,0.099 1.771,0.114 -0.056,-0.57 -0.175,-1.127 -0.356,-1.668 -0.181,-0.543 -0.407,-1.06 -0.681,-1.549 -0.273,-0.491 -0.58,-0.943 -0.922,-1.357 -0.341,-0.413 -0.699,-0.768 -1.072,-1.066 -0.374,-0.297 -0.754,-0.53 -1.139,-0.699 -0.386,-0.169 -0.759,-0.252 -1.121,-0.252 -0.322,0 -0.597,0.062 -0.825,0.186"
         id="path29-4" />
    </clipPath>
    <clipPath
       id="clip_88-3">
      <path
         transform="matrix(1,0,0,-1,0,768)"
         d="m 873.821,305.098 c -0.412,-0.212 -0.789,-0.47 -1.132,-0.776 -0.345,-0.306 -0.64,-0.654 -0.888,-1.045 -0.247,-0.389 -0.439,-0.818 -0.577,-1.284 -0.137,-0.466 -0.207,-0.97 -0.207,-1.51 0,-0.434 0.053,-0.829 0.157,-1.185 0.104,-0.358 0.247,-0.683 0.428,-0.98 0.181,-0.295 0.397,-0.565 0.646,-0.806 0.251,-0.242 0.521,-0.468 0.811,-0.677 0.291,-0.209 0.595,-0.406 0.914,-0.589 0.319,-0.184 0.638,-0.362 0.96,-0.535 0.306,-0.168 0.606,-0.336 0.902,-0.501 0.296,-0.166 0.578,-0.339 0.846,-0.52 0.266,-0.181 0.515,-0.374 0.741,-0.577 0.783,-0.704 1.215,-1.727 1.106,-2.784 -0.231,-2.25 -2.569,-3.287 -4.601,-2.888 -0.511,0.101 -1.039,0.228 -1.49,0.499 -0.229,0.137 -0.39,0.309 -0.564,0.507 -0.091,0.104 -0.397,0.448 -0.431,0.122 -0.04,-0.394 0.535,-1.046 0.784,-1.307 0.433,-0.453 0.991,-0.758 1.61,-0.862 1.326,-0.224 2.791,0.109 3.926,0.814 1.566,0.974 2.547,2.692 2.547,4.552 0,0.424 -0.052,0.809 -0.157,1.155 -0.104,0.347 -0.247,0.664 -0.428,0.952 -0.181,0.288 -0.395,0.551 -0.643,0.788 -0.247,0.237 -0.515,0.456 -0.806,0.658 -0.291,0.201 -0.596,0.391 -0.915,0.569 -0.318,0.179 -0.638,0.352 -0.959,0.521 -0.311,0.168 -0.619,0.336 -0.925,0.504 -0.306,0.169 -0.597,0.345 -0.872,0.531 -0.276,0.187 -0.53,0.384 -0.765,0.594 -0.234,0.208 -0.437,0.441 -0.608,0.695 -0.171,0.255 -0.304,0.534 -0.401,0.838 -0.097,0.303 -0.145,0.641 -0.145,1.013 0,0.459 0.084,0.88 0.252,1.261 0.071,0.163 0.156,0.312 0.25,0.455 0.697,1.062 1.927,1.648 3.174,1.728 0.641,0.041 1.277,-0.063 1.868,-0.319 0.619,-0.268 1.089,-0.724 1.659,-1.056 -0.054,0.816 -0.962,1.54 -1.655,1.825 -0.516,0.212 -1.08,0.307 -1.652,0.307 -0.962,0 -1.946,-0.267 -2.76,-0.687"
         id="path30-1" />
    </clipPath>
    <clipPath
       id="clip_85-2">
      <path
         transform="matrix(1,0,0,-1,0,768)"
         d="m 843.588,314.528 c -0.233,-0.092 -0.446,-0.234 -0.639,-0.422 -0.193,-0.189 -0.349,-0.422 -0.47,-0.699 -0.12,-0.277 -0.181,-0.597 -0.181,-0.959 0,-0.256 0.041,-0.507 0.121,-0.752 0.08,-0.246 0.197,-0.463 0.349,-0.652 0.153,-0.189 0.339,-0.342 0.555,-0.457 0.216,-0.117 0.466,-0.174 0.747,-0.174 0.297,0 0.568,0.067 0.814,0.204 0.245,0.137 0.454,0.318 0.626,0.543 0.173,0.225 0.307,0.476 0.404,0.752 0.097,0.278 0.144,0.557 0.144,0.838 0,0.266 -0.042,0.512 -0.126,0.742 -0.084,0.228 -0.205,0.432 -0.361,0.608 -0.157,0.177 -0.344,0.316 -0.561,0.416 -0.217,0.1 -0.462,0.15 -0.735,0.15 -0.225,0 -0.454,-0.046 -0.687,-0.138"
         id="path27-3" />
    </clipPath>
  </defs>
  <g
     inkscape:label="Camada 1"
     inkscape:groupmode="layer"
     id="layer1">
    <g
       id="g4">
      <g
         id="g2"
         transform="translate(-19.355167,-30.852686)">
        <path
           d="m 30.900365,43.223975 c -0.322527,0.597165 -1.174485,0.619125 -1.529556,0.03651 0,0 -0.316706,-0.504824 -0.316706,-0.504824 L 27.77643,40.74721 c -1.246982,-1.923785 -2.581011,-4.088341 -3.760259,-6.069012 -0.192616,-0.34581 -0.53287,-0.78396 -0.487627,-1.208881 -0.0016,-0.621506 0.520171,-1.225815 1.1684,-1.188509 0,0 0.297392,0.0026 0.297392,0.0026 2.943489,0.02858 7.151158,0.06482 10.112904,0.08467 0,0 0.297392,0.0021 0.297392,0.0021 0.05186,0.0013 0.09419,-0.0016 0.153723,0.0034 0.791897,0.02302 1.218935,1.008063 0.845872,1.65735 -1.810279,3.082131 -3.726127,6.09309 -5.503862,9.192948 m -0.04128,-0.02408 c 1.825625,-3.062023 3.535892,-6.199981 5.317331,-9.28714 0.270669,-0.486568 -0.03545,-1.242218 -0.628121,-1.253331 -0.08228,-0.0019 -0.350308,-2.64e-4 -0.44106,0.0011 -2.968096,0.02328 -7.163329,0.05239 -10.112904,0.0844 0,0 -0.297392,0.0029 -0.297392,0.0029 -0.57441,-0.02567 -0.863071,0.721783 -0.560652,1.166019 1.298311,2.151062 2.6543,4.508235 3.859477,6.702425 0,0 1.160198,2.078566 1.160198,2.078566 0.209021,0.331523 0.339725,0.7493 0.716756,0.877888 0.366184,0.145521 0.792957,-0.03651 0.986367,-0.372798"
           fill="#c48e6b"
           id="path54"
           style="stroke-width:0.264583" />
        <path
           d="m 23.228718,35.244406 c -0.508,-0.01243 -0.858837,0.615156 -0.56224,1.032669 0.09181,0.141816 0.50165,0.501121 0.626005,0.635793 0,0 1.734079,1.668463 1.734079,1.668463 1.587235,1.511035 3.185054,3.069696 4.718843,4.637881 0,0 0.05292,0.05318 0.05292,0.05318 l 0.02646,0.02672 c 0.167217,0.173832 0.465138,0.180975 0.640557,0.01508 l 0.427302,-0.413809 c 1.774825,-1.726671 4.723341,-4.552156 6.487848,-6.267714 0,0 0.216164,-0.209286 0.216164,-0.209286 0.116417,-0.108479 0.251354,-0.238389 0.274373,-0.404018 0.04101,-0.230982 -0.0799,-0.479161 -0.28919,-0.587111 -0.161395,-0.0799 -0.341047,-0.05556 -0.521493,-0.06112 -0.370946,-0.0016 -1.416844,-0.01111 -1.804194,-0.01323 -3.986477,-0.0066 -8.047302,-0.141552 -12.027429,-0.113506 m 0,-0.04789 c 3.97854,0.02725 8.042539,-0.105833 12.027429,-0.113241 0,0 1.202796,-0.009 1.202796,-0.009 0.192352,0.004 0.711994,-0.01111 0.907521,-0.0045 0.50747,-7.94e-4 0.913606,0.507471 0.823912,1.003829 -0.04313,0.33999 -0.351631,0.569648 -0.573617,0.799571 -1.740958,1.731962 -4.631002,4.631531 -6.383602,6.374077 0,0 -0.432064,0.427567 -0.432064,0.427567 -0.411956,0.389466 -1.051454,0.32041 -1.406525,-0.11139 -1.539346,-1.563158 -3.068902,-3.187171 -4.550304,-4.802981 -0.280194,-0.305065 -1.790436,-1.931723 -2.049198,-2.201863 l -0.103188,-0.109802 c -0.443706,-0.456671 -0.109537,-1.267618 0.53684,-1.252273"
           fill="#9b734e"
           id="path55"
           style="stroke-width:0.264583" />
      </g>
      <g
         id="g3"
         transform="translate(-22.811589,-33.09064)">
        <path
           d="m 47.620603,41.037829 c -0.07541,-0.120121 -0.164571,-0.229658 -0.267758,-0.328348 -0.103188,-0.09895 -0.215107,-0.190235 -0.336286,-0.274373 -0.121443,-0.08387 -0.248443,-0.162983 -0.381264,-0.237596 -0.132821,-0.07435 -0.266171,-0.146579 -0.40005,-0.216693 -0.129911,-0.07011 -0.258498,-0.140494 -0.386027,-0.210609 -0.12753,-0.07011 -0.248709,-0.143933 -0.363273,-0.221456 -0.115094,-0.07752 -0.221457,-0.160073 -0.319088,-0.247121 -0.0979,-0.08731 -0.182298,-0.183885 -0.253471,-0.290248 -0.07117,-0.106362 -0.127,-0.222779 -0.167481,-0.34925 -0.04022,-0.126206 -0.06059,-0.267229 -0.06059,-0.422539 0,-0.191294 0.03519,-0.366713 0.105304,-0.525992 0.02963,-0.06747 0.06509,-0.12991 0.104246,-0.189706 0.290512,-0.442648 0.803804,-0.687123 1.323181,-0.720461 0.267758,-0.0172 0.532871,0.02646 0.779198,0.133086 0.258233,0.111654 0.454289,0.301889 0.691885,0.440531 -0.02249,-0.340519 -0.401108,-0.641879 -0.690298,-0.761206 -0.576527,-0.237331 -1.298575,-0.120915 -1.839912,0.158485 -0.171186,0.08837 -0.328348,0.196321 -0.472017,0.32385 -0.143404,0.127529 -0.2667,0.272521 -0.369887,0.43524 -0.102923,0.162454 -0.183357,0.341048 -0.240507,0.535516 -0.05768,0.194734 -0.08625,0.404548 -0.08625,0.629973 0,0.180711 0.0217,0.345282 0.06535,0.494242 0.04366,0.148696 0.103188,0.284692 0.178594,0.408252 0.07541,0.123031 0.165365,0.235479 0.269346,0.336286 0.104246,0.10107 0.216958,0.194997 0.338137,0.282045 0.121179,0.08731 0.248179,0.169334 0.381,0.245798 0.132821,0.07646 0.266171,0.150813 0.400315,0.223044 0.127529,0.07012 0.252942,0.139965 0.375973,0.209021 0.12356,0.06906 0.241035,0.141287 0.352689,0.216694 0.11139,0.07567 0.214577,0.155839 0.309034,0.24077 0.326496,0.293159 0.506677,0.720196 0.461168,1.160463 -0.09657,0.938477 -1.070768,1.371071 -1.918493,1.204383 -0.245269,-0.04815 -0.504296,-0.141552 -0.704321,-0.295539 -0.179388,-0.138113 -0.443706,-0.441325 -0.476515,-0.675482 0.05371,0.383646 0.201084,0.762794 0.471752,1.045898 0.180446,0.188648 0.413015,0.316177 0.671248,0.359569 0.552715,0.09313 1.163638,-0.04551 1.636977,-0.33946 0.653257,-0.406136 1.062038,-1.122627 1.062038,-1.89865 0,-0.176477 -0.0217,-0.336815 -0.06535,-0.481277 -0.04339,-0.144728 -0.103188,-0.277019 -0.178594,-0.39714"
           fill="#685048"
           id="path101"
           style="stroke-width:0.264583" />
        <path
           d="m 50.019685,42.311692 c 0.163777,-0.537898 0.337344,-0.993775 0.521229,-1.367896 0.183886,-0.374121 0.370946,-0.677598 0.561181,-0.910431 0.190236,-0.232833 0.380207,-0.401373 0.569384,-0.505354 0.189177,-0.104246 0.369887,-0.156369 0.542131,-0.156369 0.118798,0 0.233627,0.02302 0.344223,0.06853 0.110596,0.04577 0.209021,0.116417 0.29501,0.212196 0.08599,0.09551 0.154782,0.21881 0.205582,0.369887 0.05106,0.150813 0.07673,0.331523 0.07673,0.542132 0,0.06376 -0.004,0.150283 -0.01111,0.259821 -0.0077,0.109537 -0.01667,0.231775 -0.02725,0.366712 -0.01058,0.134938 -0.02275,0.276754 -0.03651,0.425715 -0.01402,0.148695 -0.02619,0.295275 -0.03678,0.440002 -0.01058,0.144462 -0.01984,0.281781 -0.02699,0.411162 -0.0077,0.129911 -0.01138,0.241565 -0.01138,0.334963 0,0.165893 0.0069,0.300831 0.02064,0.405077 0.01402,0.104246 0.03678,0.186531 0.06879,0.247121 0.03175,0.06059 0.07435,0.102129 0.127529,0.124354 0.05318,0.02223 0.118004,0.03334 0.194469,0.03334 0.243681,0 0.531548,-0.115094 0.76544,-0.0095 -0.07673,0.06165 -0.173567,0.124354 -0.290248,0.188119 -0.116946,0.06377 -0.239713,0.122502 -0.3683,0.175419 -0.128588,0.05318 -0.256646,0.09631 -0.384175,0.129116 -0.127794,0.03307 -0.240507,0.04948 -0.338138,0.04948 -0.114829,0 -0.205052,-0.03069 -0.270933,-0.09234 -0.06615,-0.06165 -0.115358,-0.145786 -0.148431,-0.252148 -0.03281,-0.106098 -0.05424,-0.230717 -0.06376,-0.373063 -0.0095,-0.142345 -0.01429,-0.295275 -0.01429,-0.459052 0,-0.197643 0.0069,-0.401902 0.02064,-0.612245 0.01402,-0.210609 0.02884,-0.412486 0.04472,-0.605896 0.01588,-0.193411 0.03069,-0.370417 0.04445,-0.531019 0.01402,-0.160337 0.0209,-0.289454 0.0209,-0.38735 0,-0.236008 -0.04577,-0.41275 -0.137054,-0.531019 -0.09155,-0.118004 -0.214842,-0.176741 -0.369888,-0.176741 -0.121179,0 -0.250296,0.05186 -0.387615,0.156104 -0.137054,0.104246 -0.27305,0.247121 -0.407987,0.428889 -0.134938,0.181769 -0.265377,0.396611 -0.39079,0.644261 -0.125412,0.24765 -0.238125,0.515408 -0.337873,0.803275 -0.100012,0.288396 -0.182827,0.589491 -0.248708,0.904081 -0.06588,0.31459 -0.107421,0.629444 -0.124354,0.944033 l -0.679185,0.08281 -0.05107,-0.0032 c 0.0127,-0.250825 0.02699,-0.527579 0.04313,-0.830792 0.01588,-0.302683 0.03281,-0.624416 0.05107,-0.964406 0.01773,-0.33999 0.03704,-0.694796 0.05715,-1.06336 0.02037,-0.36883 0.04048,-0.744802 0.06059,-1.12739 0.02037,-0.382587 0.04101,-0.768615 0.06218,-1.157552 0.02117,-0.388938 0.04207,-0.773113 0.06218,-1.15279 0.02011,-0.379412 0.03995,-0.750887 0.059,-1.114425 0.01905,-0.363537 0.03731,-0.7112 0.05424,-1.042722 0.0021,-0.05107 0.0172,-0.09499 0.04472,-0.132292 0.02752,-0.03731 0.06323,-0.06694 0.106627,-0.08917 0.04366,-0.02249 0.09313,-0.03889 0.148431,-0.04948 0.0553,-0.01085 0.112712,-0.01614 0.172244,-0.01614 0.127529,0 0.261408,0.03413 0.401637,0.102129 -0.04895,0.433652 -0.09234,0.83185 -0.130704,1.194329 -0.0381,0.362214 -0.07276,0.698235 -0.103452,1.007533 -0.03096,0.309298 -0.05874,0.597959 -0.08308,0.865717 -0.02434,0.268023 -0.04657,0.524669 -0.06694,0.770202 -0.02011,0.245269 -0.03863,0.484981 -0.05583,0.718873 -0.01693,0.233892 -0.03387,0.471752 -0.05106,0.712787 -0.01693,0.2413 -0.0344,0.492125 -0.05265,0.752475 -0.01799,0.260615 -0.03757,0.540544 -0.059,0.840317 z"
           fill="#685048"
           id="path102"
           style="stroke-width:0.264583" />
        <path
           d="m 57.621059,40.455904 c 0,-0.09763 -0.0164,-0.189177 -0.04948,-0.274373 -0.03281,-0.08493 -0.07858,-0.15875 -0.137054,-0.221456 -0.05847,-0.06271 -0.128059,-0.112183 -0.208756,-0.148431 -0.08096,-0.03598 -0.168011,-0.05398 -0.261409,-0.05398 -0.138377,0 -0.263789,0.02434 -0.376502,0.07329 -0.112712,0.04895 -0.213519,0.115359 -0.302948,0.199231 -0.08916,0.08387 -0.167746,0.181769 -0.235744,0.293423 -0.06826,0.111655 -0.125941,0.229923 -0.173831,0.355336 -0.04789,0.125412 -0.08678,0.254264 -0.116416,0.386027 -0.0299,0.131762 -0.05107,0.26035 -0.06376,0.385762 0.301625,-0.02117 0.572294,-0.05768 0.811477,-0.110066 0.239183,-0.05212 0.44106,-0.119063 0.605896,-0.200819 0.164571,-0.08176 0.290777,-0.179652 0.377825,-0.293423 0.08705,-0.113771 0.130704,-0.243946 0.130704,-0.390525 m 0.616479,2.6797 c 0.297392,-0.06429 0.01191,0.228335 -0.06985,0.316706 -0.175154,0.188648 -0.373327,0.358775 -0.599281,0.484188 -0.147638,0.08176 -0.297921,0.142346 -0.451115,0.181768 -0.152929,0.03916 -0.304006,0.05874 -0.452966,0.05874 -0.255059,0 -0.48895,-0.05186 -0.701411,-0.156104 -0.21246,-0.104246 -0.395287,-0.246592 -0.548481,-0.427302 -0.152929,-0.180711 -0.272521,-0.392642 -0.35851,-0.636059 -0.08625,-0.243416 -0.129382,-0.504295 -0.129382,-0.782902 0,-0.227541 0.02514,-0.454818 0.07488,-0.68236 0.05001,-0.227542 0.122238,-0.444236 0.216959,-0.650611 0.09446,-0.20611 0.210079,-0.397933 0.346075,-0.575468 0.135996,-0.177536 0.290512,-0.331523 0.463814,-0.462492 0.173302,-0.130704 0.363538,-0.233098 0.570971,-0.30771 0.207169,-0.07435 0.429684,-0.11139 0.668073,-0.11139 0.157163,0 0.306917,0.02117 0.449527,0.06377 0.142346,0.04233 0.267229,0.103452 0.37465,0.183091 0.107156,0.07991 0.192881,0.178065 0.256646,0.295011 0.06376,0.116946 0.09578,0.249766 0.09578,0.398727 0,0.216958 -0.07091,0.406135 -0.212196,0.567531 -0.141287,0.16166 -0.336285,0.298715 -0.585258,0.411427 -0.248444,0.112448 -0.541337,0.203465 -0.878417,0.272521 -0.336814,0.06906 -0.700881,0.12065 -1.091935,0.154781 v 0.05424 c 0,0.271991 0.0344,0.5207 0.103452,0.746125 0.06906,0.225425 0.164306,0.418306 0.285485,0.578644 0.12118,0.160602 0.263525,0.285485 0.427303,0.37465 0.163512,0.08943 0.339989,0.134143 0.529166,0.134143 0.241036,0 0.465138,-0.0852 0.673629,-0.200025 0.138907,-0.07673 0.264584,-0.177271 0.409311,-0.243681 0.01905,-0.0087 0.07488,-0.02725 0.133085,-0.03995"
           fill="#685048"
           id="path103"
           style="stroke-width:0.264583" />
        <path
           d="m 60.015353,44.087946 -0.05106,-0.0032 c 0.0172,-0.202142 0.03307,-0.42201 0.04789,-0.660135 0.01482,-0.238125 0.02858,-0.479955 0.04154,-0.725488 0.0127,-0.245533 0.02381,-0.48895 0.0336,-0.73025 0.0093,-0.2413 0.01773,-0.46646 0.0254,-0.67601 0.0074,-0.209286 0.0127,-0.396875 0.01587,-0.562769 0.0032,-0.165894 0.0048,-0.296598 0.0048,-0.392113 0,-0.07885 -0.0032,-0.146843 -0.0095,-0.204258 -0.0063,-0.05741 -0.02064,-0.105304 -0.04313,-0.143404 -0.02222,-0.03836 -0.0545,-0.06641 -0.0971,-0.08467 -0.0426,-0.01773 -0.100012,-0.02699 -0.172244,-0.02699 -0.128058,0 -0.525462,0.197379 -0.611981,0.04948 -0.005,-0.0085 -0.04392,-0.167481 -0.03545,-0.170656 0.352954,-0.12753 0.638969,-0.217223 0.857779,-0.269346 0.219075,-0.05212 0.366712,-0.07805 0.443442,-0.07805 0.140229,0 0.240506,0.04075 0.30136,0.122766 0.06059,0.08176 0.09075,0.203465 0.09075,0.364861 0,0.01508 -0.0021,0.05847 -0.0063,0.130704 -0.0042,0.07223 -0.01005,0.166423 -0.01773,0.28231 -0.0074,0.115888 -0.0164,0.250296 -0.02699,0.40349 -0.01058,0.152929 -0.02276,0.317235 -0.03678,0.492654 -0.01376,0.175419 -0.0291,0.358246 -0.04604,0.548481 -0.0172,0.190236 -0.03519,0.379942 -0.05424,0.569119 l 0.03175,0.0032 c 0.10213,-0.416719 0.217488,-0.805127 0.346075,-1.165489 0.128588,-0.360363 0.273315,-0.673365 0.433652,-0.939271 0.160603,-0.265642 0.33708,-0.474398 0.529432,-0.626269 0.192352,-0.152135 0.403225,-0.228071 0.632883,-0.228071 0.0807,0 0.156369,0.0127 0.226483,0.0381 0.07012,0.02567 0.130705,0.06112 0.181769,0.106892 0.0508,0.04577 0.09128,0.100012 0.121179,0.162719 0.02963,0.06271 0.04471,0.131233 0.04471,0.205581 0,0.09578 -0.0209,0.187589 -0.06244,0.27596 -0.04127,0.08811 -0.106627,0.166159 -0.196056,0.234421 h -0.0254 c -0.08943,-0.07461 -0.173831,-0.128058 -0.253471,-0.161131 -0.07964,-0.03307 -0.164306,-0.04948 -0.253471,-0.04948 -0.09578,0 -0.188118,0.01826 -0.277548,0.05424 -0.08916,0.03625 -0.171185,0.08811 -0.245533,0.156369 -0.121179,0.110331 -0.233892,0.256646 -0.338137,0.43815 -0.103982,0.182033 -0.199232,0.383381 -0.285221,0.604573 -0.08625,0.220927 -0.163777,0.453231 -0.232834,0.696648 -0.06906,0.243417 -0.128587,0.480483 -0.178593,0.7112 -0.05001,0.230452 -0.09049,0.44741 -0.12118,0.650346 -0.03069,0.202935 -0.05265,0.373591 -0.06535,0.511704 z"
           fill="#685048"
           id="path104"
           style="stroke-width:0.264583" />
        <path
           d="m 65.467701,35.44631 c -0.0426,0.361421 -0.0844,0.731837 -0.125942,1.11125 -0.04154,0.379412 -0.0807,0.763323 -0.118004,1.151202 -0.03704,0.387879 -0.0717,0.77761 -0.103716,1.168665 -0.03175,0.391054 -0.05953,0.776552 -0.08282,1.155964 -0.02328,0.379413 -0.04154,0.751946 -0.05424,1.1176 -0.0127,0.365654 -0.01905,0.716492 -0.01905,1.052248 0,0.210608 0.0026,0.391319 0.0079,0.542131 0.0053,0.150813 0.01376,0.278342 0.0254,0.382588 0.01164,0.104246 0.02752,0.188119 0.04789,0.252148 0.142082,0.448204 0.747448,0.08943 1.04828,0.211666 -0.01005,0.0971 -0.185473,0.156369 -0.26379,0.199496 -0.115888,0.06376 -0.237596,0.122502 -0.365125,0.175419 -0.127529,0.05292 -0.252412,0.09631 -0.37465,0.129117 -0.122237,0.03307 -0.228071,0.04948 -0.3175,0.04948 -0.114565,0 -0.205581,-0.02937 -0.272521,-0.08758 -0.06694,-0.05847 -0.118004,-0.153723 -0.152929,-0.285486 -0.03519,-0.131762 -0.05741,-0.303477 -0.0672,-0.515144 -0.0093,-0.211402 -0.01429,-0.469106 -0.01429,-0.773112 0,-0.110596 0.0032,-0.268288 0.0098,-0.473604 0.0064,-0.205052 0.01535,-0.443706 0.02699,-0.715963 0.01164,-0.271991 0.02487,-0.569383 0.03995,-0.892704 0.01482,-0.323056 0.03069,-0.657489 0.04762,-1.002771 0.0172,-0.345545 0.03519,-0.694266 0.05424,-1.045898 0.01905,-0.351895 0.03836,-0.69215 0.05741,-1.020497 0.01931,-0.328613 0.03731,-0.638175 0.05424,-0.929482 0.01693,-0.291306 0.03281,-0.548481 0.04789,-0.771789 0.0021,-0.05107 0.01693,-0.09499 0.04471,-0.132292 0.02752,-0.03731 0.06297,-0.06694 0.106892,-0.08916 0.04339,-0.02249 0.09234,-0.03889 0.146579,-0.04974 0.05397,-0.01058 0.109009,-0.01588 0.164307,-0.01588 0.127529,0 0.261408,0.03413 0.401637,0.102129"
           fill="#685048"
           id="path105"
           style="stroke-width:0.264583" />
        <path
           d="m 67.693005,41.868541 c 0,0.144462 0.01111,0.291306 0.03334,0.440002 0.02249,0.148696 0.05715,0.2921 0.103717,0.430477 0.04683,0.138113 0.104775,0.267494 0.173831,0.38735 0.06906,0.120121 0.150813,0.224896 0.245534,0.314325 0.09472,0.08917 0.200818,0.159279 0.318823,0.210344 0.118004,0.05106 0.248443,0.07646 0.390789,0.07646 0.155046,0 0.291836,-0.0336 0.409575,-0.100277 0.118004,-0.0672 0.220134,-0.155839 0.306123,-0.266435 0.08625,-0.110331 0.157427,-0.237067 0.213783,-0.379413 0.05636,-0.142345 0.1016,-0.289718 0.135467,-0.441854 0.03413,-0.151606 0.05794,-0.302154 0.0717,-0.451114 0.01376,-0.148696 0.02064,-0.28575 0.02064,-0.411427 0,-0.146579 -0.01111,-0.293688 -0.03334,-0.441325 -0.02223,-0.147902 -0.05689,-0.290248 -0.103452,-0.427302 -0.04683,-0.137319 -0.105039,-0.265907 -0.174096,-0.386027 -0.06906,-0.120121 -0.150812,-0.224103 -0.245268,-0.312473 -0.09472,-0.08811 -0.201084,-0.157957 -0.319088,-0.208757 -0.118004,-0.05106 -0.248179,-0.07673 -0.390525,-0.07673 -0.15531,0 -0.291835,0.03307 -0.40984,0.09895 -0.118004,0.06588 -0.219868,0.154252 -0.306122,0.264584 -0.08599,0.110596 -0.157428,0.237066 -0.213519,0.379677 -0.05636,0.142346 -0.1016,0.288925 -0.135467,0.440002 -0.03413,0.151077 -0.05794,0.30136 -0.07197,0.451114 -0.01376,0.150019 -0.02064,0.286544 -0.02064,0.40984 m -0.762265,0.302948 c 0,-0.214842 0.02249,-0.432594 0.06721,-0.653785 0.04445,-0.220928 0.110595,-0.43524 0.197643,-0.642673 0.08705,-0.207169 0.194998,-0.401638 0.323586,-0.583407 0.128587,-0.181768 0.277018,-0.340518 0.445029,-0.476779 0.167746,-0.135996 0.354806,-0.243416 0.561181,-0.321998 0.206111,-0.07858 0.430477,-0.118004 0.672836,-0.118004 0.271991,0 0.512762,0.05741 0.722047,0.172244 0.20955,0.114829 0.385498,0.266171 0.527844,0.454289 0.142346,0.188384 0.250296,0.402432 0.323586,0.642673 0.07355,0.240242 0.110066,0.485775 0.110066,0.7366 0,0.214577 -0.02223,0.432594 -0.06694,0.653521 -0.04445,0.221192 -0.111125,0.435504 -0.199232,0.642673 -0.08837,0.207433 -0.196585,0.401902 -0.325437,0.583406 -0.128588,0.181769 -0.276754,0.340784 -0.444765,0.476779 -0.16801,0.136261 -0.354806,0.243417 -0.561181,0.321998 -0.20611,0.07885 -0.430477,0.118005 -0.672835,0.118005 -0.272257,0 -0.512763,-0.05741 -0.722313,-0.17198 -0.209285,-0.114829 -0.384704,-0.266435 -0.525991,-0.454554 -0.141552,-0.188119 -0.248973,-0.402166 -0.321998,-0.642408 -0.07355,-0.240242 -0.110332,-0.485775 -0.110332,-0.7366"
           fill="#685048"
           id="path106"
           style="stroke-width:0.264583" />
        <path
           d="m 76.919925,43.896969 c 0.02355,-0.01297 0.04762,-0.02513 0.07038,-0.03916 0.03784,-0.02328 0.07382,-0.04895 0.109802,-0.07488 5.29e-4,-5.3e-4 0.0013,-0.0011 0.0021,-0.0016 0.0085,-0.0071 0.01693,-0.01402 0.0254,-0.02117 0.01667,-0.01429 0.03307,-0.02884 0.04921,-0.04392 0.02672,-0.0254 0.0508,-0.05292 0.07488,-0.08043 0.03757,-0.07699 0.068,-0.157427 0.10848,-0.192881 2.64e-4,-7.94e-4 5.29e-4,-0.0016 5.29e-4,-0.0024 -0.122767,0.05239 -0.242094,0.09551 -0.360363,0.125941 -0.119062,0.03096 -0.233891,0.0463 -0.344223,0.0463 -0.07673,0 -0.141552,-0.01111 -0.194733,-0.0336 -0.05292,-0.02222 -0.09551,-0.06376 -0.127529,-0.124354 -0.03175,-0.06059 -0.05477,-0.142875 -0.06853,-0.247121 -0.01376,-0.103981 -0.02064,-0.239183 -0.02064,-0.404812 0,-0.09578 0.0037,-0.207963 0.01111,-0.33655 0.0074,-0.128588 0.0164,-0.264054 0.02725,-0.406665 0.01058,-0.142345 0.02275,-0.287337 0.03651,-0.435239 0.01376,-0.147638 0.02593,-0.287338 0.03678,-0.4191 0.01058,-0.132027 0.01958,-0.251619 0.02699,-0.358775 0.0074,-0.107421 0.01111,-0.193146 0.01111,-0.256911 0,-0.21881 -0.0254,-0.405341 -0.07646,-0.559593 -0.05107,-0.153988 -0.119592,-0.27993 -0.205581,-0.377825 -0.08625,-0.0979 -0.184415,-0.169069 -0.295011,-0.213519 -0.110596,-0.04472 -0.225425,-0.06694 -0.344223,-0.06694 -0.172243,0 -0.352954,0.05212 -0.542395,0.156104 -0.188913,0.104246 -0.379413,0.273844 -0.570707,0.508794 -0.191293,0.234686 -0.379412,0.540809 -0.564356,0.918369 -0.184944,0.377296 -0.358246,0.840052 -0.519906,1.388533 l -0.01905,-0.0032 c 0.01905,-0.184943 0.03731,-0.370416 0.05424,-0.556418 0.01693,-0.186003 0.03228,-0.366184 0.0463,-0.540544 0.01376,-0.174361 0.02593,-0.338402 0.03651,-0.492654 0.01085,-0.153988 0.01984,-0.290513 0.02725,-0.40984 0.0074,-0.119062 0.01323,-0.217223 0.01746,-0.29501 0.0042,-0.07752 0.0064,-0.126736 0.0064,-0.148167 0,-0.178594 -0.0344,-0.304535 -0.103453,-0.377825 -0.287072,-0.3048 -1.014147,0.01535 -1.315508,0.157162 -0.05821,0.02725 -0.218546,0.144728 -0.28575,0.09816 0.03863,0.04048 0.09313,0.04022 0.146844,0.03836 0.217752,-0.0071 0.450056,0.01111 0.655902,0.08731 0.04022,0.01508 0.07355,0.03995 0.100012,0.07514 0.02646,0.03493 0.0463,0.08228 0.059,0.141816 0.0127,0.05927 0.01931,0.132821 0.01931,0.220134 0,0.09551 -0.0019,0.226218 -0.005,0.392112 -0.0029,0.165629 -0.0085,0.353483 -0.01587,0.562769 -0.0074,0.209285 -0.01587,0.43471 -0.0254,0.67601 -0.0095,0.2413 -0.0209,0.484717 -0.0336,0.73025 -0.0127,0.245534 -0.02646,0.487363 -0.04154,0.725488 -0.01482,0.238125 -0.03069,0.457994 -0.04789,0.659871 l 0.05106,0.0034 0.666486,-0.08308 c 0.01693,-0.31459 0.05847,-0.629179 0.124354,-0.943769 0.06588,-0.314589 0.14896,-0.61595 0.248708,-0.904081 0.100013,-0.288131 0.212196,-0.55589 0.33655,-0.80354 0.124354,-0.24765 0.254,-0.462491 0.388938,-0.64426 0.134937,-0.181769 0.270669,-0.324644 0.406664,-0.42889 0.135996,-0.103981 0.265642,-0.156104 0.388938,-0.156104 0.15531,0 0.279664,0.059 0.373062,0.177007 0.09366,0.118004 0.140494,0.301095 0.140494,0.550068 0,0.0934 -0.0069,0.218282 -0.0209,0.37465 -0.01376,0.156104 -0.0291,0.329936 -0.0463,0.521229 -0.01693,0.191294 -0.03228,0.392907 -0.04604,0.604309 -0.01402,0.211666 -0.02064,0.417248 -0.02064,0.617008 0,0.163777 0.0048,0.316706 0.01429,0.459317 0.0095,0.142346 0.03069,0.2667 0.06377,0.373062 0.03281,0.106363 0.08228,0.190236 0.148167,0.251884 0.06588,0.06165 0.156368,0.09234 0.271198,0.09234 0.09763,0 0.210343,-0.0164 0.337873,-0.04948 0.127529,-0.03281 0.255587,-0.07594 0.384175,-0.129117 0.05371,-0.02196 0.105568,-0.04551 0.157162,-0.06959"
           fill="#685048"
           id="path107"
           style="stroke-width:0.264583" />
        <path
           d="m 82.542903,36.906466 c -0.0063,-0.106362 -0.02725,-0.196056 -0.06218,-0.26961 -0.03493,-0.07303 -0.09049,-0.128323 -0.165894,-0.16563 -0.07541,-0.03731 -0.183356,-0.05583 -0.323585,-0.05583 -0.242888,0 -0.485246,0.03122 -0.723106,0.07858 -0.220134,0.04366 -0.455084,0.08599 -0.652463,0.197908 -0.0045,0.0026 -0.0079,0.0063 -0.01217,0.0098 0.02196,0.01508 0.0418,0.0336 0.05794,0.05477 2.65e-4,0 5.29e-4,2.65e-4 7.94e-4,2.65e-4 -0.03016,-0.04075 -0.0069,-0.0098 0.0042,0.0019 0.01085,0.0045 0.01588,0.01032 0.01349,0.01032 0.0011,7.93e-4 0.0024,0.0019 0.0034,0.0026 0.0016,0.0011 0.0037,0.0019 0.0056,0.0029 0.01402,0.004 0.04207,0.01482 0.04842,0.0164 0.0095,0.0024 0.01932,0.0037 0.02884,0.0056 5.29e-4,2.65e-4 7.94e-4,2.65e-4 0.0013,2.65e-4 0.09631,0.0085 0.193146,0 0.289189,-0.004 0.205582,-0.0082 0.425186,0.0209 0.556948,0.183886 0.0063,0.0069 0.01482,0.01191 0.02037,0.01905 0.03413,0.04471 0.05583,0.102658 0.06535,0.173831 0.0095,0.07117 0.01455,0.156898 0.01455,0.25691 0,0.35904 -0.0019,0.709877 -0.005,1.052248 -0.0032,0.342106 -0.0074,0.683948 -0.0127,1.024996 -0.0053,0.341312 -0.0127,0.684477 -0.02223,1.030023 -0.0095,0.345546 -0.0209,0.699823 -0.0336,1.06336 -0.01482,0.433652 -0.03254,0.846667 -0.05239,1.239044 -0.02037,0.392113 -0.05001,0.756708 -0.08943,1.093523 -0.03942,0.336814 -0.09128,0.641085 -0.156369,0.912019 -0.06482,0.270933 -0.148696,0.502708 -0.251883,0.695325 -0.102923,0.192352 -0.230188,0.339989 -0.381,0.443177 -0.150813,0.103187 -0.330465,0.154516 -0.538957,0.154516 -0.19976,0 -0.386291,-0.04921 -0.559593,-0.148166 -0.173303,-0.09895 -0.324644,-0.264054 -0.45429,-0.495829 -0.07012,0 -0.135731,0.01429 -0.196056,0.04313 -0.06059,0.02857 -0.1143,0.06562 -0.161132,0.111654 -0.04683,0.04551 -0.08334,0.09657 -0.110066,0.152929 -0.02646,0.05636 -0.03969,0.111125 -0.03969,0.164306 0,0.09551 0.0291,0.18759 0.08758,0.275696 0.05847,0.08811 0.1397,0.1651 0.243946,0.231246 0.104246,0.06588 0.228071,0.118269 0.371475,0.157692 0.143404,0.03942 0.300302,0.05927 0.470429,0.05927 0.12753,0 0.258234,-0.01296 0.392113,-0.03836 0.133879,-0.02566 0.267758,-0.068 0.401902,-0.127794 0.133879,-0.05927 0.265112,-0.138113 0.3937,-0.235744 0.128587,-0.0979 0.250825,-0.219075 0.366712,-0.363537 0.115888,-0.144727 0.222515,-0.315119 0.320411,-0.511705 0.0979,-0.19685 0.182827,-0.422539 0.255323,-0.677862 0.112448,-0.395288 0.202406,-0.823648 0.269346,-1.284817 0.06694,-0.461433 0.119062,-0.938212 0.156368,-1.430337 0.03704,-0.492125 0.06403,-0.992188 0.08123,-1.500188 0.01693,-0.508 0.03175,-1.007798 0.04445,-1.498864 0.0045,-0.184944 0.009,-0.368829 0.01455,-0.551656 0.005,-0.182563 0.01058,-0.353484 0.01587,-0.511705 0.0053,-0.158485 0.0095,-0.297656 0.0127,-0.417777 0.0032,-0.120121 0.0048,-0.208756 0.0048,-0.266171 0,-0.135995 -0.0032,-0.257175 -0.0095,-0.363537"
           fill="#685048"
           id="path108"
           style="stroke-width:0.264583" />
        <path
           d="m 85.098487,41.868541 c 0,0.144462 0.01111,0.291306 0.03334,0.440002 0.02249,0.148696 0.05715,0.2921 0.103717,0.430477 0.04683,0.138113 0.104775,0.267494 0.173831,0.38735 0.06906,0.120121 0.151077,0.224896 0.245534,0.314325 0.09472,0.08917 0.200818,0.159279 0.318823,0.210344 0.118268,0.05106 0.248443,0.07646 0.390789,0.07646 0.155046,0 0.291836,-0.0336 0.409575,-0.100277 0.118004,-0.0672 0.220134,-0.155839 0.306123,-0.266435 0.08625,-0.110331 0.157427,-0.237067 0.213783,-0.379413 0.05636,-0.142345 0.1016,-0.289718 0.135467,-0.441854 0.03413,-0.151606 0.05794,-0.302154 0.0717,-0.451114 0.01376,-0.148696 0.0209,-0.28575 0.0209,-0.411427 0,-0.146579 -0.01111,-0.293688 -0.0336,-0.441325 -0.02222,-0.147902 -0.05688,-0.290248 -0.103452,-0.427302 -0.04683,-0.137319 -0.105039,-0.265907 -0.174096,-0.386027 -0.06906,-0.120121 -0.150812,-0.224103 -0.245268,-0.312473 -0.09472,-0.08811 -0.201084,-0.157957 -0.319088,-0.208757 -0.11774,-0.05106 -0.248179,-0.07673 -0.390525,-0.07673 -0.15531,0 -0.291835,0.03307 -0.40984,0.09895 -0.118004,0.06588 -0.219868,0.154252 -0.306122,0.264584 -0.08599,0.110596 -0.157428,0.237066 -0.213519,0.379677 -0.05636,0.142346 -0.1016,0.288925 -0.135467,0.440002 -0.03413,0.151077 -0.05794,0.30136 -0.07197,0.451114 -0.01376,0.150019 -0.02064,0.286544 -0.02064,0.40984 m -0.762265,0.302948 c 0,-0.214842 0.02249,-0.432594 0.0672,-0.653785 0.04445,-0.220928 0.110595,-0.43524 0.197643,-0.642673 0.08705,-0.207169 0.194998,-0.401638 0.323586,-0.583407 0.128587,-0.181768 0.277018,-0.340518 0.445029,-0.476779 0.167746,-0.135996 0.355071,-0.243416 0.561181,-0.321998 0.206111,-0.07858 0.430477,-0.118004 0.672836,-0.118004 0.271991,0 0.512762,0.05741 0.722047,0.172244 0.20955,0.114829 0.385498,0.266171 0.527844,0.454289 0.142346,0.188384 0.250296,0.402432 0.323586,0.642673 0.07355,0.240242 0.110066,0.485775 0.110066,0.7366 0,0.214577 -0.02222,0.432594 -0.06694,0.653521 -0.04445,0.221192 -0.111125,0.435504 -0.199232,0.642673 -0.08837,0.207433 -0.196585,0.401902 -0.325437,0.583406 -0.128588,0.181769 -0.276754,0.340784 -0.444765,0.476779 -0.16801,0.136261 -0.354806,0.243417 -0.561181,0.321998 -0.20611,0.07885 -0.430477,0.118005 -0.672835,0.118005 -0.272257,0 -0.512763,-0.05741 -0.722313,-0.17198 -0.209274,-0.11482 -0.384693,-0.266426 -0.52598,-0.454545 C 84.627,43.362378 84.519579,43.148331 84.446554,42.908089 84.373,42.667847 84.336222,42.422314 84.336222,42.171489"
           fill="#685048"
           id="path109"
           style="stroke-width:0.264583" />
        <path
           d="m 90.161607,37.909687 c 0.04048,0.05001 0.08943,0.09049 0.146844,0.121179 0.05715,0.03096 0.123296,0.04604 0.197643,0.04604 0.07858,0 0.150284,-0.01799 0.215107,-0.05398 0.06482,-0.03625 0.120121,-0.08414 0.165893,-0.143669 0.04577,-0.05953 0.08123,-0.125942 0.106892,-0.199231 0.0254,-0.07329 0.03836,-0.147109 0.03836,-0.221457 0,-0.07038 -0.01138,-0.135731 -0.0336,-0.19632 -0.02223,-0.06059 -0.05424,-0.1143 -0.09578,-0.160867 -0.04127,-0.04683 -0.09075,-0.08361 -0.148166,-0.110067 -0.05741,-0.02646 -0.122238,-0.03995 -0.194469,-0.03995 -0.05953,0 -0.120121,0.01217 -0.181769,0.03678 -0.06165,0.02434 -0.118004,0.06165 -0.169068,0.111654 -0.05106,0.05001 -0.0926,0.111655 -0.124355,0.18468 -0.03201,0.07355 -0.04789,0.157956 -0.04789,0.253735 0,0.068 0.01058,0.134408 0.03201,0.199231 0.02117,0.06482 0.05212,0.122238 0.09234,0.172244"
           fill="#685048"
           id="path110"
           style="stroke-width:0.264583" />
        <path
           d="m 91.453012,43.808572 c 0.02408,-0.02117 0.04868,-0.04207 0.07117,-0.06482 0.03625,-0.03598 0.06959,-0.07408 0.102129,-0.113242 5.29e-4,-0.0011 7.94e-4,-0.0013 0.0016,-0.0026 0.0077,-0.01058 0.01534,-0.02117 0.02249,-0.03175 0.01455,-0.02117 0.02831,-0.04313 0.04127,-0.06535 0.01164,-0.01984 0.02249,-0.04048 0.03254,-0.06138 0,-2.64e-4 7.94e-4,-0.0021 0.0011,-0.0029 l -0.01058,-0.0291 c -0.121179,0.0553 -0.240771,0.09842 -0.358775,0.129116 -0.118004,0.03096 -0.228071,0.0463 -0.3302,0.0463 -0.0553,0 -0.10451,-0.0053 -0.148167,-0.01588 -0.04366,-0.01085 -0.08176,-0.0336 -0.114829,-0.06879 -0.03307,-0.03493 -0.06059,-0.08493 -0.08281,-0.149754 -0.02249,-0.06482 -0.04101,-0.151342 -0.05583,-0.259821 -0.01482,-0.108479 -0.0254,-0.241829 -0.03201,-0.400315 -0.0063,-0.158221 -0.0095,-0.347927 -0.0095,-0.569119 0,-0.163512 0.0037,-0.346868 0.01111,-0.550068 0.0077,-0.202936 0.01932,-0.418307 0.03519,-0.645584 0.01588,-0.227541 0.03678,-0.463021 0.06218,-0.706437 0.0254,-0.243417 0.05636,-0.486304 0.09234,-0.728663 -0.125413,-0.06588 -0.259292,-0.09869 -0.401638,-0.09869 -0.03836,0 -0.08043,0.0037 -0.125942,0.01111 -0.04577,0.0074 -0.0889,0.02117 -0.129116,0.04127 -0.04048,0.02037 -0.07461,0.04895 -0.102129,0.08625 -0.02752,0.03704 -0.04339,0.08546 -0.04789,0.144992 -0.01693,0.272256 -0.03069,0.53631 -0.04127,0.792427 -0.01085,0.256117 -0.01931,0.499798 -0.02567,0.73025 -0.0063,0.230717 -0.01111,0.446352 -0.01429,0.647436 -0.0032,0.200818 -0.0048,0.381 -0.0048,0.540279 0,0.272256 0.0053,0.504031 0.01587,0.695325 0.01058,0.191293 0.02593,0.350573 0.0463,0.478102 0.02011,0.127529 0.04551,0.2286 0.07646,0.302948 0.03069,0.07461 0.06588,0.130704 0.105304,0.169068 0.03916,0.03836 0.08334,0.06218 0.132292,0.0717 0.04895,0.0095 0.103187,0.01455 0.162719,0.01455 0.08916,0 0.194998,-0.01667 0.317235,-0.04974 0.122238,-0.03281 0.247121,-0.07594 0.37465,-0.128852 0.115623,-0.04815 0.225425,-0.101336 0.331523,-0.158221"
           fill="#685048"
           id="path111"
           style="stroke-width:0.264583" />
        <path
           d="m 95.054361,42.236815 c -0.04789,0.143404 -0.10795,0.280194 -0.180181,0.409575 -0.07223,0.12991 -0.153459,0.249502 -0.243946,0.358775 -0.09049,0.109537 -0.184944,0.203729 -0.283898,0.28231 -0.09869,0.07858 -0.199231,0.14023 -0.30136,0.184944 -0.101865,0.04471 -0.200819,0.06694 -0.296334,0.06694 -0.0852,0 -0.157956,-0.0164 -0.218546,-0.04948 -0.06059,-0.03281 -0.110595,-0.07805 -0.149754,-0.135467 -0.03942,-0.05742 -0.068,-0.123825 -0.08625,-0.199231 -0.01799,-0.07541 -0.02699,-0.154782 -0.02699,-0.237596 0,-0.146579 0.02434,-0.275961 0.07329,-0.38735 0.04895,-0.111654 0.116417,-0.208227 0.202406,-0.290248 0.08626,-0.08176 0.188648,-0.150548 0.307711,-0.205846 0.119062,-0.05503 0.248179,-0.09975 0.387614,-0.133879 0.139171,-0.03387 0.28628,-0.05874 0.44159,-0.07488 0.155046,-0.01587 0.311415,-0.02593 0.468842,-0.03016 -0.01508,0.150813 -0.0463,0.298186 -0.09419,0.44159 m 1.034785,1.90209 c 0.01852,0 0.03651,-0.0021 0.05503,-0.0026 0.0971,-0.01984 0.194204,-0.04524 0.295539,-0.08308 0.05503,-0.02037 0.116946,-0.04842 0.186267,-0.08784 0.02937,-0.0164 0.05794,-0.03387 0.08599,-0.05239 0.0336,-0.02222 0.05927,-0.0418 0.07249,-0.05292 0.05265,-0.04471 0.103452,-0.09366 0.145786,-0.148696 0.0032,-0.0045 0.01058,-0.01508 0.01376,-0.01984 0.0087,-0.01349 0.01773,-0.02699 0.02619,-0.04075 0.0095,-0.01614 0.01879,-0.03281 0.02752,-0.04948 -0.02963,-0.0217 -0.110067,0.02461 -0.18759,0.05847 -0.115623,0.05054 -0.239977,0.08705 -0.367242,0.08705 -0.184679,0 -0.334168,-0.07699 -0.447939,-0.231246 -0.113771,-0.154252 -0.170392,-0.384439 -0.170392,-0.690562 0,-0.193146 0.0058,-0.387879 0.01746,-0.583407 0.01164,-0.195527 0.02487,-0.385233 0.03969,-0.569383 0.01508,-0.183621 0.02831,-0.359569 0.03995,-0.527579 0.01164,-0.16801 0.01773,-0.321998 0.01773,-0.462492 0,-0.203993 -0.02302,-0.38682 -0.06879,-0.548216 -0.04551,-0.161661 -0.11774,-0.299244 -0.216694,-0.413015 -0.09895,-0.113506 -0.227542,-0.200289 -0.385763,-0.259821 -0.158485,-0.05953 -0.34925,-0.08943 -0.572558,-0.08943 -0.121179,0 -0.252412,0.01323 -0.3937,0.03995 -0.141552,0.02646 -0.28231,0.06482 -0.42254,0.114829 -0.140493,0.05001 -0.276489,0.111125 -0.408252,0.183357 -0.131762,0.07223 -0.24765,0.153987 -0.347662,0.245533 -0.09975,0.09155 -0.180181,0.192352 -0.240506,0.302948 -0.06059,0.110596 -0.09102,0.228335 -0.09102,0.353748 0,0.07673 0.01323,0.145785 0.03995,0.207433 0.02646,0.06165 0.06271,0.113771 0.108215,0.156369 0.04577,0.04233 0.100012,0.07488 0.162718,0.0971 0.06271,0.02222 0.130175,0.0336 0.202407,0.0336 0.123295,0 0.245533,-0.0299 0.366712,-0.08943 l 0.01296,-0.03519 c -0.07223,-0.09763 -0.127265,-0.198173 -0.164307,-0.301096 -0.03731,-0.103187 -0.05583,-0.205845 -0.05583,-0.307975 0,-0.08705 0.01429,-0.168275 0.04313,-0.243681 0.02858,-0.07567 0.07541,-0.141023 0.14023,-0.196321 0.06482,-0.0553 0.149225,-0.09869 0.25347,-0.130704 0.104246,-0.03175 0.231775,-0.04762 0.382588,-0.04762 0.112712,0 0.225425,0.01905 0.338137,0.05715 0.112713,0.03836 0.213519,0.09684 0.302948,0.175419 0.08916,0.07885 0.161396,0.179652 0.216694,0.302948 0.0553,0.123296 0.08308,0.269081 0.08308,0.436827 0,0.151077 -0.0048,0.28919 -0.01455,0.414602 -0.0095,0.125413 -0.0217,0.255058 -0.03651,0.388938 -0.231775,0 -0.459052,0.01429 -0.682361,0.04313 -0.223308,0.02884 -0.43471,0.07223 -0.634735,0.130704 -0.199761,0.05847 -0.384704,0.132027 -0.554831,0.220133 -0.170127,0.08811 -0.316177,0.192881 -0.438415,0.31406 -0.122237,0.12118 -0.218017,0.258234 -0.286808,0.411428 -0.06932,0.152929 -0.103717,0.323056 -0.103717,0.510116 0,0.144463 0.02381,0.278077 0.0717,0.40005 0.04789,0.122502 0.114829,0.228071 0.200819,0.3175 0.08625,0.08917 0.189706,0.159544 0.310885,0.210344 0.121179,0.05107 0.255323,0.07673 0.401902,0.07673 0.178594,0 0.34925,-0.04339 0.511705,-0.129381 0.162718,-0.08599 0.315912,-0.198702 0.459316,-0.337873 0.143404,-0.139171 0.275167,-0.297656 0.395288,-0.475192 0.120121,-0.177535 0.225954,-0.357716 0.317235,-0.540543 h 0.01932 c -0.01085,0.06165 -0.01773,0.12012 -0.02064,0.175418 -0.0034,0.0553 -0.005,0.110596 -0.005,0.165894 0,0.184944 0.02355,0.347398 0.07012,0.487892 0.04683,0.140229 0.112712,0.256646 0.197908,0.348985 0.08493,0.0926 0.186002,0.16219 0.302948,0.209021 0.116681,0.04657 0.24421,0.07012 0.382587,0.07012"
           fill="#685048"
           id="path112"
           style="stroke-width:0.264583" />
        <path
           d="m 100.05271,42.440253 c -0.0275,-0.09181 -0.06535,-0.175683 -0.113242,-0.251883 -0.04789,-0.0762 -0.10451,-0.145786 -0.169862,-0.208492 -0.06562,-0.06271 -0.136525,-0.12065 -0.213519,-0.173831 -0.07699,-0.05345 -0.157692,-0.103717 -0.241829,-0.150813 -0.0844,-0.04736 -0.169069,-0.09313 -0.254,-0.137583 -0.08228,-0.04472 -0.163777,-0.08917 -0.24474,-0.133615 -0.08096,-0.04445 -0.157956,-0.09128 -0.230716,-0.140758 -0.07276,-0.04895 -0.140229,-0.101335 -0.202407,-0.156633 -0.06191,-0.0553 -0.115622,-0.116682 -0.160602,-0.18415 -0.04524,-0.06747 -0.0807,-0.141288 -0.106362,-0.221721 -0.02567,-0.0799 -0.03836,-0.169333 -0.03836,-0.268023 0,-0.121179 0.02222,-0.232569 0.06668,-0.33364 0.01879,-0.04286 0.04127,-0.08255 0.06615,-0.120385 0.184415,-0.280988 0.510117,-0.436033 0.839523,-0.4572 0.169863,-0.01085 0.338138,0.01693 0.494506,0.0844 0.163777,0.07091 0.288132,0.191558 0.438944,0.2794 -0.01429,-0.2159 -0.254529,-0.407194 -0.437885,-0.482865 -0.365919,-0.150547 -0.823913,-0.07673 -1.167607,0.100542 -0.108479,0.05609 -0.208227,0.124619 -0.299508,0.205581 -0.09102,0.08096 -0.169069,0.172773 -0.234685,0.275961 -0.06535,0.103452 -0.116152,0.216694 -0.152665,0.339989 -0.03651,0.123561 -0.0545,0.256646 -0.0545,0.399786 0,0.114564 0.01376,0.219075 0.04127,0.313531 0.02778,0.09446 0.06562,0.18071 0.113506,0.259027 0.04789,0.07805 0.104775,0.14949 0.170921,0.213254 0.06615,0.06429 0.137583,0.123825 0.214577,0.179123 0.07673,0.0553 0.157163,0.107421 0.241565,0.15584 0.0844,0.04868 0.169068,0.09578 0.254,0.141552 0.08096,0.04445 0.160337,0.0889 0.238654,0.132556 0.07832,0.04392 0.152929,0.08969 0.223837,0.137583 0.07064,0.04789 0.136261,0.09896 0.196057,0.15293 0.207168,0.186002 0.321468,0.456935 0.292629,0.736335 -0.06138,0.595312 -0.67945,0.869685 -1.217348,0.764117 -0.135202,-0.02646 -0.274902,-0.06006 -0.394229,-0.131763 -0.06059,-0.03651 -0.103188,-0.08202 -0.148961,-0.134408 -0.02434,-0.02752 -0.105039,-0.118534 -0.114035,-0.03228 -0.01111,0.104245 0.141287,0.276754 0.207169,0.34581 0.114564,0.119856 0.262202,0.200819 0.425979,0.228335 0.350837,0.059 0.738452,-0.02884 1.038754,-0.215635 0.414337,-0.25744 0.673891,-0.712258 0.673891,-1.204648 0,-0.111919 -0.0138,-0.213783 -0.0415,-0.305329"
           fill="#685048"
           id="path113"
           style="stroke-width:0.264583" />
      </g>
    </g>
  </g>
</svg>
